<?xml version="1.0" standalone="no"?>
<!DOCTYPE svg PUBLIC "-//W3C//DTD SVG 1.1//EN" "http://www.w3.org/Graphics/SVG/1.1/DTD/svg11.dtd" >
<!--
2013-9-30: Created.
-->
<svg>
<metadata>
Created by iconfont
</metadata>
<defs>

<font id="iconfont" horiz-adv-x="1024" >
  <font-face
    font-family="iconfont"
    font-weight="500"
    font-stretch="normal"
    units-per-em="1024"
    ascent="896"
    descent="-128"
  />
    <missing-glyph />
    
    <glyph glyph-name="dingdan" unicode="&#58880;" d="M658.02195032 715.860771l-301.516463 0 0 120.413923 60.688617 0q0 25.046096 17.339605 42.385701t42.385701 17.339605l60.688617 0q25.046096 0 42.385701-17.339605t17.339605-42.385701l60.688617 0 0-120.413923zM507.74537432 769.806209q15.412982 0 26.491063 11.078081t11.078081 26.491063q0 16.376294-11.078081 26.972719t-26.491063 10.596425q-16.376294 0-26.972719-10.596425t-10.596425-26.972719q0-15.412982 10.596425-26.491063t26.972719-11.078081zM749.53653132 295.85700799999995q43.349012 0 81.881468-16.857949t67.431797-45.757291 45.757291-67.431797 16.857949-81.881468q0-44.312324-16.857949-82.844779t-45.757291-67.431797-67.431797-45.275635-81.881468-16.376294q-44.312324 0-82.844779 16.376294t-67.431797 45.275635-45.757291 67.431797-16.857949 82.844779q0 43.349012 16.857949 81.881468t45.757291 67.431797 67.431797 45.757291 82.844779 16.857949zM880.54688032 102.23142099999995q5.779868 6.74318 10.596425 16.376294t-2.889934 17.339605q-1.926623 1.926623-9.151458 9.633114t-9.151458 8.669802q-9.633114 6.74318-18.302916 1.926623t-17.339605-13.486359q-22.156162-22.156162-43.830668-43.349012t-40.940734-40.459078q-6.74318-6.74318-14.931326-8.188147t-13.004704 5.298213q-2.889934 2.889934-9.151458 9.633114t-13.004704 14.449671-13.004704 14.931326-9.151458 10.11477q-5.779868 4.816557-13.004704 6.261524t-14.931326-5.298213q-0.963311-0.963311-4.816557-4.334901t-7.706491-7.706491-7.706491-7.706491-4.816557-4.334901q-14.449671-15.412982 3.853246-35.642521 5.779868-6.74318 15.412982-16.857949t20.229539-21.674506 21.19285-22.637817 18.302916-17.821261q7.706491-7.706491 21.19285-7.224835t20.229539 8.188147q13.486359 12.523048 30.825964 30.344309t36.124177 36.124177 36.605833 36.124177 32.270931 31.30762zM474.02947632 112.82784600000002q0-6.74318-0.481656-13.486359t-0.481656-14.449671q0-43.349012 12.523048-82.363123t35.642521-71.766698l-281.286924 0q-18.302916 0-39.977422 10.596425t-40.459078 27.93603-31.30762 39.495767-12.523048 46.238946l0 596.289746q0 20.229539 9.633114 41.904045t25.046096 39.977422 35.642521 30.344309 42.385701 12.041392l68.395108 0 0-120.413923 420.967074 0 0 120.413923 59.725306 0q22.156162 0 43.830668-9.633114t39.014111-26.009407 28.417686-39.495767 11.078081-49.128881l0-341.01223q-33.715898 22.156162-72.248354 34.67921t-81.881468 12.523048l-6.74318 0q17.339605 6.74318 28.417686 22.156162t11.078081 34.67921q0 25.046096-17.821261 42.385701t-42.867357 17.339605l-420.967074 0q-25.046096 0-42.867357-17.339605t-17.821261-42.385701 17.821261-42.867357 42.867357-17.821261l403.627469 0q-57.798683-9.633114-105.000941-40.940734t-78.028222-79.473189l-220.598307 0q-25.046096 0-42.867357-17.339605t-17.821261-42.385701 17.821261-42.867357 42.867357-17.821261l177.249294 0z"  horiz-adv-x="1024" />

    
    <glyph glyph-name="hetong" unicode="&#58897;" d="M331.03744 356.6747232c-3.92076373-4.95334827-19.71515413-22.61206507-22.91550933-27.05130453-15.63830187-21.55765013-19.76754667-55.5248672-13.72813014-76.27369707 8.56848427-29.21034347 37.83012907-32.520944 59.56024107-34.67889173 50.26807467-5.05267627 101.36352747-1.6678528 152.15007787-1.6678528 49.54439253 0 99.038576 0.7367808 148.5349408-0.29471254 29.26273707-0.51520107 53.88102827 7.5293504 66.06355626 35.09585494 13.004448 29.40572693 6.34504427 57.16870613-15.74418026 80.81117226-7.79349973 8.26504-15.89590187 16.40782827-24.00048747 24.47639254-18.52648107 18.565776-18.1684608 37.15665707-1.752992 57.16870613 15.27591467 18.59088107 30.91530773 37.2789088 43.76694293 57.5125376 69.3643328 109.08826133 45.15754773 251.3371008-55.68968746 332.14827307C565.81717333 885.3698272 418.3115424 877.841568 327.01189013 786.7034624c-99.19575573-99.009104-83.14485653-262.39863147 5.16182934-373.05650773C352.55907093 388.16526507 343.269088 372.05214933 331.03744 356.6747232L331.03744 356.6747232zM922.90901333 93.05030720000002c-0.203024 53.24466773-22.91332693 78.55498667-75.34808213 78.65322453-227.34643733 0.4180544-454.64266453 0.29471253-681.9869184-0.31872533-52.07455147-0.09823787-74.1124736-23.3237408-74.7848544-74.53271147-0.3099936-23.93717867-0.0523936-47.87326613-0.0523936-74.5086976l832.17224853 0C922.90901333 47.72793920000004 923.01379947 70.43824213000005 922.90901333 93.05030720000002L922.90901333 93.05030720000002zM137.3416768-90.88939092999999L874.5008992-90.88939092999999l0 75.85673386L137.3416768-15.032658129999959 137.3416768-90.88939092999999 137.3416768-90.88939092999999zM137.3416768-90.88939092999999"  horiz-adv-x="1024" />

    
    <glyph glyph-name="bangzhu" unicode="&#58922;" d="M512.697383 832.555016c-247.538793 0-448.208115-200.649879-448.208115-448.208115 0-247.520373 200.669322-448.208115 448.208115-448.208115s448.208115 200.687742 448.208115 448.208115C960.905498 631.905136 760.236176 832.555016 512.697383 832.555016zM510.988462 160.861944c-25.550932 0-46.25958 21.301142-46.25958 47.563272s20.708648 47.563272 46.25958 47.563272c25.561166 0 46.269813-21.301142 46.269813-47.563272S536.548604 160.861944 510.988462 160.861944zM640.211569 459.777871c-6.383384-12.291954-13.970176-22.86987-22.751167-31.769564-8.78099-8.936533-24.557302-23.927969-47.299259-45.046962-6.291287-5.945409-11.334139-11.161201-15.119349-15.684214-3.792373-4.487198-6.619768-8.608052-8.462742-12.365632-1.868557-3.719718-3.291976-7.477298-4.303003-11.197016-1.013073-3.756557-2.543939-10.32209-4.579295-19.733437-3.518127-19.950378-14.524808-29.910217-33.027208-29.910217-9.611915 0-17.708314 3.247974-24.26566 9.775644-6.573719 6.529717-9.848299 16.194844-9.848299 29.071106 0 16.086373 2.39863 30.055526 7.204076 41.836851 4.814656 11.818163 11.18883 22.177092 19.150152 31.076786 7.960299 8.899694 18.684548 19.514449 32.17991 31.806403 11.835559 10.724249 20.398586 18.821671 25.660426 24.293289 5.287423 5.470595 9.720386 11.562337 13.323447 18.273179 3.610224 6.711865 5.415336 14.007015 5.415336 21.848611 0 15.355733-5.508457 28.305673-16.503882 38.845727-11.016915 10.541077-25.205055 15.830547-42.594097 15.830547-20.354584 0-35.335786-5.325285-44.947701-15.975856-9.620102-10.650571-17.754363-26.297946-24.420179-47.052642-6.291287-21.666462-18.219967-32.499182-35.791158-32.499182-10.349719 0-19.10308 3.793396-26.217105 11.380188-7.121188 7.586792-10.6782 15.793708-10.6782 24.583908 0 18.237363 5.635347 36.694737 16.915251 55.405891 11.279904 18.675338 27.757181 34.17638 49.396014 46.432519 21.630646 12.292977 46.888913 18.420535 75.742055 18.420535 26.825972 0 50.489928-5.143137 71.025637-15.392572 20.534685-10.249435 36.392862-24.219611 47.580668-41.836851 11.189853-17.654079 16.788361-36.839023 16.788361-57.557904C649.785621 486.331643 646.593929 472.032986 640.211569 459.777871z"  horiz-adv-x="1024" />

    
    <glyph glyph-name="yulan" unicode="&#59169;" d="M126.987694 627.485613l766.395968 0 0-487.398696 64.025199-56.45171L957.408861 655.025852c0 32.19219-26.097378 58.288544-58.290591 58.288544L121.25411 713.314397c-32.193213 0-58.291614-26.097378-58.291614-58.288544l0-706.726983c0-32.19219 26.097378-58.288544 58.291614-58.288544l604.521207 0-51.112098 69.335135L126.987694-40.65454 126.987694 627.485613zM936.70226-9.798788l-157.691485 134.196375c-16.303314 14.670118-33.775244 21.373797-47.840588 20.723997 37.235043 43.650149 59.71094 100.220562 59.71094 162.03235 0 137.888464-111.77062 249.689782-249.704109 249.689782-137.939629 0-249.700015-111.802342-249.700015-249.689782 0-137.89051 111.760386-249.690806 249.700015-249.690806 61.85272 0 118.387317 22.472827 162.031327 59.697637-0.689708-14.057157 6.100952-31.489178 20.769023-47.792493l134.11758-157.722184c23.006993-25.520233 60.47535-27.672246 83.397409-4.792143C964.376553-70.272092 962.223516-32.721871 936.70226-9.798788zM541.178041 140.692714c-91.934852 0-166.466336 74.5366-166.466336 166.460196 0 91.929736 74.531484 166.459173 166.466336 166.459173 91.928712 0 166.468382-74.529437 166.468382-166.459173C707.6454 215.229315 633.10573 140.692714 541.178041 140.692714z"  horiz-adv-x="1024" />

    
    <glyph glyph-name="home" unicode="&#58909;" d="M924.377 443.567l-336.072 354.826c-20.886 22.031-48.796 34.153-78.72 34.153s-57.833-12.123-78.72-34.153l-336.071-354.826c-34.676-36.619-30.211-68.283-24.475-81.496 4.087-9.386 17.876-35.175 57.621-35.175h49.252v-272.956c0-61.981 43.879-120.33 106.222-120.33h143.079v288.88c0 30.968-4.633 48.221 26.563 48.221h113.062c31.195 0 26.563-17.253 26.563-48.221v-288.88h143.080c62.342 0 106.222 58.349 106.222 120.33l0 272.956h49.252c39.744 0 53.534 25.789 57.621 35.175 5.734 13.213 10.198 44.877-24.479 81.496zM891.232 383.079h-104.648v-329.139c0-30.968-19.677-64.145-50.826-64.145h-87.683l-0 232.696c0 61.964-19.584 104.405-81.96 104.405h-113.062c-62.389 0-81.959-42.442-81.959-104.405v-232.696h-87.682c-31.165 0-50.826 33.177-50.826 64.145l-0 329.139h-104.648c-0.983 0-1.876 3.866-2.678 3.921 1.906 3.404 5.206 12.017 10.702 17.807l336.101 354.574c10.035 10.62 24.219 17.119 37.96 16.984 13.728 0.135 27.049-6.364 37.084-16.984l336.101-354.574c5.48-5.791 8.795-14.403 10.702-17.807-0.802-0.055-1.694-3.921-2.677-3.921z"  horiz-adv-x="1024" />

    
    <glyph glyph-name="kuaijiecaidan" unicode="&#58890;" d="M371.66266666 401.98533334L165.01966666 401.98533334C97.55366666 401.98533334 42.66666666 456.87233334 42.66666666 524.33733334L42.66666666 730.98033334C42.66666666 798.44633334 97.55366666 853.33333334 165.01966666 853.33333334l206.643 0c67.465 0 122.352-54.887 122.352-122.353l0-206.643C494.01466666 456.87233334 439.12766666 401.98533334 371.66266666 401.98533334zM165.01966666 789.33333334C132.84366666 789.33333334 106.66666666 763.15633334 106.66666666 730.98033334l0-206.643c0-32.175 26.177-58.352 58.353-58.352l206.643 0c32.175 0 58.352 26.177 58.352 58.352L430.01466666 730.98033334c0 32.176-26.177 58.353-58.352 58.353L165.01966666 789.33333334zM880.81366666 401.98533334L674.17166666 401.98533334c-67.466 0-122.353 54.887-122.353 122.352L551.81866666 730.98033334C551.81866666 798.44633334 606.70566666 853.33333334 674.17166666 853.33333334l206.643 0C948.27966666 853.33333334 1003.16666666 798.44633334 1003.16666666 730.98033334l0-206.643C1003.16666666 456.87233334 948.27966666 401.98533334 880.81366666 401.98533334zM674.17166666 789.33333334c-32.176 0-58.353-26.177-58.353-58.353l0-206.643c0-32.175 26.177-58.352 58.353-58.352l206.643 0c32.176 0 58.353 26.177 58.353 58.352L939.16766666 730.98033334C939.16666666 763.15633334 912.98966666 789.33333334 880.81366666 789.33333334L674.17166666 789.33333334zM371.66266666-106.69966666000005L165.01966666-106.69966666000005C97.55366666-106.69966666000005 42.66666666-51.81266665999999 42.66666666 15.652333340000041L42.66666666 222.29533333999996c0 67.466 54.887 122.353 122.353 122.353l206.643 0c67.465 0 122.352-54.887 122.352-122.353l0-206.643C494.01466666-51.81266665999999 439.12766666-106.69966666000005 371.66266666-106.69966666000005zM165.01966666 280.64733334000005C132.84366666 280.64733334000005 106.66666666 254.47133334 106.66666666 222.29533333999996l0-206.643c0-32.176 26.177-58.353 58.353-58.353l206.643 0c32.175 0 58.352 26.177 58.352 58.353L430.01466666 222.29533333999996c0 32.176-26.177 58.353-58.352 58.353L165.01966666 280.64833334zM880.81366666-106.69966666000005L674.17166666-106.69966666000005c-67.466 0-122.353 54.887-122.353 122.353L551.81866666 222.29533333999996c0 67.466 54.887 122.353 122.353 122.353l206.643 0c67.466 0 122.353-54.887 122.353-122.353l0-206.643C1003.16666666-51.81266665999999 948.27966666-106.69966666000005 880.81366666-106.69966666000005zM674.17166666 280.64733334000005c-32.176 0-58.353-26.177-58.353-58.353l0-206.643c0-32.176 26.177-58.353 58.353-58.353l206.643 0c32.176 0 58.353 26.177 58.353 58.353L939.16766666 222.29533333999996c0 32.176-26.177 58.353-58.353 58.353L674.17166666 280.64833334z"  horiz-adv-x="1024" />

    
    <glyph glyph-name="iconfontheart" unicode="&#58927;" d="M514.031263-4.587226 135.016043 358.126726c-12.113899 12.916171-23.00904 27.228131-32.346709 42.551118-9.209756 15.098883-16.879436 31.207769-22.815635 47.894823-10.060123 28.318976-15.178701 70.808696-15.178701 100.106975 0 143.041834 116.358101 228.320079 259.399935 228.320079 72.010057 0 139.912563-54.723346 188.528817-106.179274C561.203632 722.275353 629.122511 776.998699 701.132568 776.998699c143.025461 0 259.383562-85.278245 259.383562-228.320079 0-28.800953-4.941546-70.840418-14.665001-98.726535-6.209422-17.746176-14.376429-34.881438-24.323988-50.895157-8.359388-13.477966-18.003026-26.249851-28.672016-37.978986l-2.037403-2.053776L514.031263-4.587226z"  horiz-adv-x="1024" />

    
    <glyph glyph-name="remind" unicode="&#58924;" d="M959.83616 101.21216000000004c-48.64 40.96-87.20384 94.98624-117.78048 165.23264-34.5088 79.01184-51.26144 169.61536-52.8384 284.91776-1.47456 101.9904-49.70496 175.47264-147.47648 224.58368-16.896 8.45824-35.18464 13.80352-54.5792 19.47648-8.82688 2.6624-17.69472 5.18144-26.33728 8.11008L553.69728 805.888l0.57344 7.4752c1.80224 22.91712-2.37568 40.67328-12.06272 51.2C535.4496 871.79264 526.06976 875.52 514.29376 875.52c-15.50336 0-27.89376-4.89472-35.75808-14.09024-9.23648-10.77248-12.41088-27.11552-9.23648-47.28832l1.20832-7.9872-7.59808-2.60096c-8.99072-3.05152-18.20672-5.79584-27.36128-8.4992-19.7632-5.91872-38.48192-11.42784-55.64416-20.2752-95.10912-49.11104-142.6432-122.10176-145.14176-222.9248-1.4336-57.05728-7.168-113.72544-17.16224-168.38656C196.87424 269.70111999999995 147.06688 176.04607999999996 69.4272 105.18528000000003c-14.82752-13.59872-15.5648-17.42848-6.41024-34.59072C74.79296 48.721919999999955 92.32384 37.29408000000001 116.65408 35.84000000000003c2.88768-0.24576 5.75488-0.26624 8.64256-0.26624l12.30848 0.08192 237.3632 0 1.67936-7.43424c20.91008-91.19744 61.952-133.07904 133.07904-135.59808L514.74432-107.51999999999998c27.42272 0 52.44928 8.31488 74.40384 24.63744 36.78208 27.2384 55.31648 62.99648 56.64768 109.21984l0.26624 9.33888 173.1584-0.06144c27.68896 0 55.41888 0 83.12832 0.08192 30.35136 0.14336 54.53824 17.1008 63.03744 44.25728C968.54016 90.00959999999998 967.20896 94.98623999999995 959.83616 101.21216000000004zM513.39264-81.5104l-3.39968 0.06144c-56.09472 1.536-104.2432 47.69792-105.2672 100.7616-0.14336 6.41024 3.44064 11.53024 6.32832 15.60576 0.86016 1.35168 1.82272 2.58048 2.51904 3.85024l6.92224 12.71808 9.03168-11.30496c0.8192-1.04448 1.82272-2.048 2.82624-3.09248 3.33824-3.33824 7.49568-7.49568 8.58112-13.59872 7.94624-42.57792 24.84224-59.74016 67.23584-68.03456 6.20544-1.20832 10.77248-5.4272 14.39744-8.82688 1.20832-1.14688 2.37568-2.27328 3.66592-3.23584l10.24-7.65952L513.39264-81.5104z"  horiz-adv-x="1024" />

    
    <glyph glyph-name="tgEdit" unicode="&#58904;" d="M255.091304 768.92072l376.715851 0c-8.953929-10.316973-16.863063-21.427008-23.7581-33.429367L273.764596 735.491353c-96.176456 0-174.86768-79.660294-174.86768-177.074951l0-366.55135c0-97.515964 78.691223-177.173189 174.86768-177.173189l349.7108 0c96.226598 0 174.917822 79.657224 174.917822 177.173189L798.393217 414.078039c12.721743 0.298805 25.195845 1.784646 37.300534 4.26514l0-243.442498c0-106.539478-87.050612-193.640232-193.543018-193.640232L255.091304-18.739551000000006c-106.444311 0-193.5686 87.100754-193.5686 193.640232L61.522704 575.379749C61.523727 681.921273 148.648017 768.92072 255.091304 768.92072L255.091304 768.92072zM365.22668 451.77357L258.412956 231.84562500000004l229.750661 54.06536L365.22668 451.77357 365.22668 451.77357zM939.358763 747.296213c-31.027667 42.160215-85.266989 56.542784-157.184949 12.994965l123.109876-167.054737C968.275349 648.98821 970.533786 704.936453 939.358763 747.296213L939.358763 747.296213 939.358763 747.296213zM867.264794 563.87267L742.839971 732.614839 383.433344 467.647095 507.830539 298.805666 867.264794 563.87267z"  horiz-adv-x="1024" />

    
    <glyph glyph-name="settings" unicode="&#59026;" d="M1012.7872 350.953585 1012.7872 428.259215C1012.7872 453.36928 992.418202 473.738283 967.264256 473.738283L954.753126 473.738283C925.604352 473.738283 900.186982 492.57083 890.748774 520.139222 885.08585 536.776834 878.325453 552.93156 870.59927 568.515603 857.561344 594.810932 862.082918 626.286309 882.847027 647.0504L891.802368 656.005738C909.537434 673.784716 909.537434 702.582272 891.802368 720.361251L837.148467 774.971249C819.369472 792.750228 790.57193 792.750228 772.792934 774.971249L763.17911 765.40133C742.546739 744.725036 711.203021 740.115672 684.951603 752.977994 669.543168 760.528573 653.607936 767.157278 637.189837 772.732415 609.489715 782.126739 590.525491 807.587993 590.525491 836.824536L590.525491 850.477035C590.525491 875.630998 570.156493 896 545.046426 896L467.740774 896C442.630707 896 422.261709 875.630998 422.261709 850.477035L422.261709 835.463675C422.261709 806.402727 403.516979 781.029272 376.036352 771.503251 360.013363 765.972013 344.429312 759.431105 329.372058 751.968324 303.032832 738.930406 271.557427 743.451974 250.79337 764.216065L239.994266 774.971249C222.21527 792.750228 193.417728 792.750228 175.638733 774.971249L121.028762 720.361251C103.249766 702.582272 103.249766 673.784716 121.028762 656.005738L132.442419 644.548174C153.11872 623.87188 157.684173 592.528199 144.821862 566.276769 137.578547 551.395106 131.169331 536.030556 125.725901 520.22702 116.287693 492.614729 90.870323 473.738283 61.67767 473.738283L45.522944 473.738283C20.412877 473.738283 0 453.36928 0 428.259215L0 350.953585C0 325.843517 20.412877 305.474519 45.522944 305.474519L61.67767 305.474519C90.870323 305.474519 116.287693 286.598072 125.725901 258.985779 131.169331 243.182244 137.578547 227.817692 144.821862 212.936033 157.684173 186.6846 153.11872 155.340918 132.442419 134.664627L121.028762 123.20706C103.249766 105.428086 103.249766 76.630528 121.028762 58.851548L175.638733 4.197652C193.417728-13.537428 222.21527-13.537428 239.994266 4.197652L250.79337 14.996736C271.557427 35.760824 303.032832 40.282394 329.372058 27.244477 344.429312 19.781693 360.013363 13.240786 376.036352 7.709548 403.516979-1.816474 422.261709-27.189929 422.261709-56.250875L422.261709-71.264236C422.261709-96.418196 442.630707-116.7872 467.740774-116.7872L545.046426-116.7872C570.156493-116.7872 590.525491-96.418196 590.525491-71.264236L590.525491-57.611735C590.525491-28.375194 609.489715-2.91394 637.189837 6.480384 653.607936 12.055521 669.543168 18.684227 684.951603 26.234808 711.203021 39.097129 742.546739 34.487762 763.17911 13.811471L772.792934 4.197652C790.57193-13.537428 819.369472-13.537428 837.148467 4.197652L891.802368 58.851548C909.537434 76.630528 909.537434 105.428086 891.802368 123.20706L882.847027 132.162401C862.082918 152.92649 857.561344 184.401869 870.59927 210.697196 878.325453 226.281242 885.08585 242.435968 890.748774 259.073577 900.186982 286.641971 925.604352 305.474519 954.753126 305.474519L967.264256 305.474519C992.418202 305.474519 1012.7872 325.843517 1012.7872 350.953585L1012.7872 350.953585ZM568.093235 134.664627C377.265562 92.390164 210.977229 258.634593 253.295565 449.462295 274.630349 545.644374 352.243251 623.2134 448.38144 644.548174 639.209165 686.822634 805.453568 520.578209 763.17911 329.750508 741.844326 233.612324 664.275302 155.999401 568.093235 134.664627L568.093235 134.664627Z"  horiz-adv-x="1024" />

    
    <glyph glyph-name="jihua" unicode="&#58937;" d="M674.508 297.662h-387.428c-14.137 0-25.639-11.5-25.639-25.637 0-14.138 11.502-25.641 25.639-25.641h387.428c14.138 0 25.641 11.502 25.641 25.641 0 14.137-11.502 25.637-25.641 25.637zM794.746 511.417c-14.138 0-25.641-11.502-25.641-25.64v-494.3c0-0.131 0-0.28-0.001-0.434-0.899-0.279-2.666-0.645-5.764-0.645l-563.292 0c-4.312 0-7.564 2.972-7.564 6.913l-0 706.836c0 4.493 0.974 8.289 1.811 9.822h373.338c14.137 0 25.64 11.502 25.64 25.64 0 14.137-11.502 25.639-25.64 25.639h-374.070c-30.337 0-52.357-25.696-52.357-61.1v-706.836c0-32.087 26.396-58.191 58.841-58.191h563.293c34.119 0 57.042 21.041 57.042 52.356l0 494.298c0.001 14.138-11.499 25.641-25.636 25.641zM674.508 150.705h-387.428c-14.137 0-25.639-11.5-25.639-25.637 0-14.138 11.502-25.641 25.639-25.641h387.428c14.138 0 25.641 11.502 25.641 25.641 0 14.137-11.502 25.637-25.641 25.637zM879.596 738.893c-3.773 14.409-12.871 28.25-24.965 37.976l-43.827 35.241c-12.88 10.353-29.277 16.29-44.987 16.29-16.876 0-31.595-6.748-41.44-18.996l-19.625-24.381c-6.38-7.968-7.988-17.577-5.223-26.916l-116.729-145.154-22.813-85.304c-9.749-30.86 4.449-48.076 13.806-55.609 6.783-5.45 14.469-8.729 22.851-9.754 0.984-0.247 2.125-0.488 3.44-0.632 1.004-0.111 2.054-0.168 3.118-0.168h0.014c4.589 0 10.048 0.997 17.18 3.135l2.878 1.065 83.403 41.897 119.874 149.079c0.44-0.017 0.88-0.033 1.32-0.033 9.219 0 17.412 3.863 23.078 10.892l19.563 24.342c10.411 12.938 13.637 29.64 9.082 47.028zM674.47 547.435l-56.738-28.538c-2.958-0.579-5.735-1.684-8.278-3.296-0.313-0.199-0.615-0.386-0.906-0.563 0.124 0.318 0.254 0.64 0.393 0.971 1 2.438 1.588 5.022 1.754 7.702l17.733 66.079 105.732 131.489 48.648-39.114-108.338-134.731zM831.386 723.081l-7.68-9.551-68.14 54.78 7.687 9.564c0.292 0.132 1.144 0.384 2.604 0.384 4.284 0 9.736-2.071 13.57-5.156l43.832-35.246c3.494-2.806 6.421-7.019 7.642-10.993 0.596-1.943 0.59-3.308 0.484-3.781zM487.475 604.933h-200.394c-14.137 0-25.639-11.502-25.639-25.64 0-14.137 11.502-25.638 25.639-25.638h200.394c14.138 0 25.64 11.501 25.64 25.638 0 14.138-11.503 25.64-25.64 25.64zM674.508 457.977h-387.428c-14.137 0-25.639-11.501-25.639-25.639s11.502-25.639 25.639-25.639h387.428c14.138 0 25.641 11.502 25.641 25.639s-11.502 25.639-25.641 25.639z"  horiz-adv-x="1024" />

    
    <glyph glyph-name="tianjiatupian" unicode="&#58960;" d="M913.212778 31.32263499999999l0 66.940598 16.738219 0 0-66.940598L913.212778 31.32263499999999 913.212778 31.32263499999999 913.212778 31.32263499999999zM913.212778 131.73660299999995l0 66.946738 16.738219 0 0-66.946738L913.212778 131.73660299999995 913.212778 131.73660299999995 913.212778 131.73660299999995zM913.212778 299.09628499999997l16.738219 0 0-66.946738L913.212778 232.14954699999998 913.212778 299.09628499999997 913.212778 299.09628499999997 913.212778 299.09628499999997zM913.212778 399.512299l16.738219 0 0-66.942645L913.212778 332.569654 913.212778 399.512299 913.212778 399.512299 913.212778 399.512299zM913.212778 499.931383L913.212778 499.931383l16.738219 0 0-66.940598L913.212778 432.990784 913.212778 499.931383 913.212778 499.931383 913.212778 499.931383zM913.212778 600.34535l16.738219 0 0-66.940598L913.212778 533.4047519999999 913.212778 600.34535 913.212778 600.34535 913.212778 600.34535zM913.212778 700.765457L913.212778 700.765457l16.738219 0 0-66.946738L913.212778 633.818719 913.212778 700.765457 913.212778 700.765457 913.212778 700.765457zM913.212778 801.179424l16.738219 0 0-66.940598L913.212778 734.238826 913.212778 801.179424 913.212778 801.179424 913.212778 801.179424zM829.525774 801.179424l66.946738 0 0-16.739243-66.946738 0L829.525774 801.179424 829.525774 801.179424 829.525774 801.179424zM729.111806 801.179424l66.946738 0 0-16.739243-66.946738 0L729.111806 801.179424 729.111806 801.179424 729.111806 801.179424zM628.697839 801.179424l66.940598 0 0-16.739243-66.940598 0L628.697839 801.179424 628.697839 801.179424 628.697839 801.179424zM528.283872 801.179424l66.940598 0 0-16.739243-66.940598 0L528.283872 801.179424 528.283872 801.179424 528.283872 801.179424zM427.862741 801.179424l66.947761 0 0-16.739243-66.947761 0L427.862741 801.179424 427.862741 801.179424 427.862741 801.179424zM327.448774 801.179424l66.946738 0 0-16.739243-66.946738 0L327.448774 801.179424 327.448774 801.179424 327.448774 801.179424zM227.02969 801.179424l66.946738 0 0-16.739243-66.946738 0L227.02969 801.179424 227.02969 801.179424 227.02969 801.179424zM126.615723 801.179424l66.940598 0 0-16.739243-66.940598 0L126.615723 801.179424 126.615723 801.179424 126.615723 801.179424zM126.615723-35.62410299999999l-33.473369 0 0 33.473369 16.738219 0 0-16.739243 16.734126 0L126.614699-35.62410299999999 126.615723-35.62410299999999 126.615723-35.62410299999999zM93.142353 98.26323400000001l16.738219 0 0-66.940598-16.738219 0L93.142353 98.26323400000001 93.142353 98.26323400000001 93.142353 98.26323400000001zM93.142353 198.682317l16.738219 0 0-66.946738-16.738219 0L93.142353 198.682317 93.142353 198.682317 93.142353 198.682317zM93.142353 299.09628499999997l16.738219 0 0-66.946738-16.738219 0L93.142353 299.09628499999997 93.142353 299.09628499999997 93.142353 299.09628499999997zM93.142353 399.512299l16.738219 0 0-66.942645-16.738219 0L93.142353 399.512299 93.142353 399.512299 93.142353 399.512299zM93.142353 499.931383l16.738219 0 0-66.940598-16.738219 0L93.142353 499.931383 93.142353 499.931383 93.142353 499.931383zM93.142353 600.34535l16.738219 0 0-66.940598-16.738219 0L93.142353 600.34535 93.142353 600.34535 93.142353 600.34535zM93.142353 700.765457L93.142353 700.765457l16.738219 0 0-66.946738-16.738219 0L93.142353 700.765457 93.142353 700.765457 93.142353 700.765457zM93.142353 801.179424l16.738219 0 0-66.940598-16.738219 0L93.142353 801.179424 93.142353 801.179424 93.142353 801.179424zM227.02969-35.62410299999999l-66.940598 0L160.089092-18.889977000000044l66.940598 0L227.02969-35.62410299999999 227.02969-35.62410299999999 227.02969-35.62410299999999zM327.448774-35.62410299999999l-66.940598 0L260.508175-18.889977000000044l66.940598 0L327.448774-35.62410299999999 327.448774-35.62410299999999 327.448774-35.62410299999999zM486.442928 550.137855l50.207495 0 0-142.259004 142.259004 0 0-50.207495L536.650423 357.67135499999995l0-142.253888L486.442928 215.417467 486.442928 357.67033200000003 344.1829 357.67033200000003l0 50.207495L486.442928 407.877827 486.442928 550.137855 486.442928 550.137855 486.442928 550.137855zM427.862741-35.62410299999999l-66.940598 0L360.922143-18.889977000000044l66.940598 0L427.862741-35.62410299999999 427.862741-35.62410299999999 427.862741-35.62410299999999zM528.283872-35.62410299999999l-66.946738 0L461.337133-18.889977000000044l66.946738 0L528.283872-35.62410299999999 528.283872-35.62410299999999 528.283872-35.62410299999999zM628.697839-35.62410299999999l-66.940598 0L561.757241-18.889977000000044l66.940598 0L628.697839-35.62410299999999 628.697839-35.62410299999999 628.697839-35.62410299999999zM729.111806-35.62410299999999l-66.940598 0L662.171208-18.889977000000044l66.940598 0L729.111806-35.62410299999999 729.111806-35.62410299999999 729.111806-35.62410299999999zM829.525774-35.62410299999999l-66.940598 0L762.585175-18.889977000000044l66.940598 0L829.525774-35.62410299999999 829.525774-35.62410299999999 829.525774-35.62410299999999zM913.212778-2.1507340000000568l16.738219 0 0-33.473369-66.946738 0L863.004259-18.889977000000044l50.207495 0L913.211754-2.1507340000000568 913.212778-2.1507340000000568 913.212778-2.1507340000000568zM913.212778-2.1507340000000568"  horiz-adv-x="1024" />

    
    <glyph glyph-name="download" unicode="&#58984;" d="M956.351785 54.213995c3.796466-15.182794 3.006474-29.577642-2.371-43.180452-5.379521-13.603833-13.761422-25.622564-25.151843-36.062334s-25.305339-18.667152-41.754986-24.676006c-16.449647-6.009877-34.167171-9.015328-53.146431-9.015328-119.579469-0.633427-226.499617-0.950651-320.771701-0.950651L190.485891-59.670775c-22.779819 0-42.868343 4.113691-60.263525 12.341073-17.400299 8.222265-31.318286 18.345834-41.760103 30.365588-10.43977 12.023848-17.400299 25.15082-20.875446 39.388079-3.479241 14.232143-3.007497 27.048029 1.421372 38.433334 3.796466 8.855692 7.593955 18.033725 11.390421 27.522844 3.163039 8.222265 6.960529 17.557888 11.385305 27.993564 4.429893 10.43977 9.172917 21.038152 14.237259 31.794124l36.062334 87.311555 108.192118 0-40.809451-119.577423 611.17679 0-40.809451 119.577423 103.445 0c13.285584-32.269961 25.305339-61.372789 36.06131-87.311555 4.429893-11.390421 8.854669-22.458501 13.286608-33.215496 4.429893-10.756995 8.379854-20.404726 11.861142-28.944216 3.479241-8.544607 6.326079-15.820314 8.543583-21.830191C955.242522 58.16805 956.351785 54.847421 956.351785 54.213995L956.351785 54.213995zM478.989677 229.782639c-12.019755 13.920034-25.77913 31.31931-41.284265 52.199872-15.500019 20.874423-31.474852 42.388413-47.922453 64.530712-16.45067 22.147416-32.741705 43.973514-48.879244 65.485457-16.133446 21.51092-30.524201 40.177048-43.180452 55.992245-14.549368 17.084097-20.24202 31.16172-17.077957 42.231847 3.162016 11.072173 13.913894 16.607236 32.264844 16.607236 10.122545-0.633427 23.726378-0.476861 40.809451 0.474814 17.083074 0.950651 31.314193 1.425466 42.703591 1.425466 12.653181 0 20.563338 3.796466 23.727401 11.386328 3.163039 7.593955 4.742001 17.7165 4.742001 30.369681 0 13.921058-0.157589 29.261441-0.474814 46.027289-0.313132 16.765849-0.469698 34.006512-0.469698 51.724035 0 17.7165-0.159636 35.112706-0.475837 52.195779-0.318248 17.08205-0.475837 32.897248-0.475837 47.451732 0 6.327102 0.475837 12.969383 1.421372 19.929912 0.950651 6.960529 3.163039 13.286608 6.643304 18.97926 3.479241 5.697769 8.543583 10.43977 15.186887 14.237259 6.642281 3.795443 15.657608 5.692652 27.048029 5.692652 13.285584 0 25.463951 0.157589 36.537148 0.475837 11.069103 0.316202 23.886013 0.474814 38.434358 0.474814 20.880563 0 34.958186-4.904707 42.233893-14.71105 7.272637-9.807367 11.228739-25.465998 11.862165-46.973848l0-37.011962c0-14.554484 0.157589-30.052456 0.475837-46.502104 0.316202-16.448624 0.474814-32.903388 0.474814-49.353035l0-44.601824c0-18.35095 1.89721-33.05893 5.692652-44.131103 3.795443-11.073196 12.334933-16.292058 25.621541-15.658631 9.490142 0 21.038152-0.316202 34.640961-0.949628 13.604856-0.63445 25.465998-0.950651 35.58752-0.950651 17.08205 0 27.997658-4.584412 32.741705-13.761422 4.747117-9.172917 1.424442-21.035082-9.965979-35.586496-12.018731-15.183817-25.938766-33.532721-41.754986-55.041594-15.816221-21.512966-32.106232-43.813878-48.873104-66.907852-16.767895-23.091928-33.216519-45.556569-49.354058-67.381643-16.131399-21.830191-30.522154-40.651862-43.178405-56.467059-11.386328-14.554484-22.300912-21.988804-32.741705-22.300912C501.290589 209.065805 490.381122 215.866698 478.989677 229.782639L478.989677 229.782639zM478.989677 229.782639"  horiz-adv-x="1024" />

    
    <glyph glyph-name="more" unicode="&#59271;" d="M195.648 448c35.392 0 64-28.608 64-64s-28.608-64-64-64-64 28.608-64 64S160.256 448 195.648 448L195.648 448zM508.352 448c-35.392 0-64-28.608-64-64s28.608-64 64-64 64 28.608 64 64S543.744 448 508.352 448L508.352 448zM828.352 448c-35.392 0-64-28.608-64-64s28.608-64 64-64 64 28.608 64 64S863.744 448 828.352 448L828.352 448z"  horiz-adv-x="1024" />

    
    <glyph glyph-name="jiantouyou" unicode="&#58902;" d="M723.696401 362.897256c0.486519 0.973037 1.337926 1.824445 1.702815 2.797482 8.514075 17.757928 5.716593 39.651265-9.365483 53.881934L372.30835 744.692719c-18.730966 17.757928-48.28697 16.906521-66.044898-1.824445-17.757928-18.730966-16.906521-48.28697 1.824445-66.044898l308.452785-291.789524L309.304193 88.987291c-18.609336-17.879558-19.095855-47.435562-1.216296-66.044898 9.122224-9.487112 21.406818-14.352298 33.569783-14.352298 11.676446 0 23.352892 4.378667 32.353486 13.136002l340.563012 328.278418c0.608148 0.608148 0.851408 1.581185 1.581185 2.189334 0.486519 0.486519 0.973037 0.851408 1.581185 1.337926C720.53403 356.329255 721.871956 359.734885 723.696401 362.897256L723.696401 362.897256zM723.696401 362.897256"  horiz-adv-x="1024" />

    
    <glyph glyph-name="LC_icon_close_circle_line" unicode="&#58884;" d="M359.55 214.19c-4.444 0-8.889 1.69-12.268 5.092-6.782 6.782-6.782 17.8 0 24.583l304.876 304.876c6.782 6.782 17.777 6.782 24.56 0s6.782-17.777 0-24.56l-304.899-304.899c-3.38-3.403-7.824-5.092-12.268-5.092zM664.426 214.19c-4.444 0-8.889 1.69-12.268 5.092l-304.899 304.876c-6.782 6.782-6.782 17.777 0 24.56s17.777 6.782 24.56 0l304.876-304.876c6.782-6.782 6.782-17.8 0-24.583-3.38-3.38-7.824-5.069-12.268-5.069zM512-127.977c-282.33 0-512 229.67-512 511.954 0 282.307 229.67 512 512 512s512-229.67 512-512-229.716-511.954-512-511.954zM512 861.256c-263.164 0-477.279-214.115-477.279-477.279s214.115-477.279 477.279-477.279 477.279 214.115 477.279 477.279-214.115 477.279-477.279 477.279z"  horiz-adv-x="1024" />

    
    <glyph glyph-name="down" unicode="&#58929;" d="M886.766933 405.367467 508.1088 9.454933 129.621333 405.367467c-10.973867 11.434667-28.842667 11.434667-39.816533 0-11.042133-11.554133-11.042133-30.173867 0-41.745067l398.421333-416.648533c11.042133-11.537067 28.808533-11.537067 39.799467 0l398.574933 416.648533c11.008 11.5712 11.008 30.190933 0 41.745067C915.524267 416.8192 897.757867 416.8192 886.766933 405.367467M886.766933 783.086933 508.1088 387.1744 129.621333 783.086933c-10.973867 11.434667-28.842667 11.434667-39.816533 0-11.042133-11.537067-11.042133-30.1568 0-41.728l398.421333-416.6656c11.042133-11.537067 28.808533-11.537067 39.799467 0L926.600533 741.358933c11.008 11.5712 11.008 30.208 0 41.728C915.524267 794.538667 897.757867 794.538667 886.766933 783.086933"  horiz-adv-x="1024" />

    
    <glyph glyph-name="zhexiantu" unicode="&#59290;" d="M929.28 0L65.28 0 65.28 272.32000000000005l184.448 184.448C261.76 451.264 275.072 448 289.28 448s27.456 3.264 39.552 8.768l129.216-129.216C452.48 315.52 449.28 302.144 449.28 288c0-52.992 43.008-96 96-96s96 43.008 96 96c0 14.144-3.264 27.52-8.768 39.552l317.44 317.44c13.824 13.76 13.824 36.096 0 49.92-13.76 13.76-36.096 13.76-49.92 0L581.76 376.70399999999995C570.496 381.376 558.208 384 545.28 384S520 381.376 508.736 376.70399999999995L377.984 507.52C382.656 518.72 385.28 531.072 385.28 544c0 52.992-43.008 96-96 96s-96-43.008-96-96c0-12.928 2.624-25.28 7.296-36.48L65.28 372.15999999999997 65.28 736c0 17.664-14.336 32-32 32s-32-14.336-32-32l0-437.312c-0.832-4.288-0.832-8.576 0-12.864L1.28-32c0-17.664 14.336-32 32-32l896 0c17.664 0 32 14.336 32 32S946.944 0 929.28 0zM545.28 320c17.664 0 32-14.336 32-32S562.944 256 545.28 256s-32 14.336-32 32S527.552 320 545.28 320zM289.28 576c17.664 0 32-14.336 32-32S306.944 512 289.28 512s-32 14.336-32 32S271.552 576 289.28 576z"  horiz-adv-x="1024" />

    
    <glyph glyph-name="shengri" unicode="&#59165;" d="M931.87 54.698h-839.74c-36.228 0-63.156-28.379-63.156-65.933 0-37.495 26.929-65.872 63.156-65.872h839.74c36.228 0 63.156 28.379 63.156 65.872 0 37.555-26.929 65.933-63.156 65.933zM929.154 296.21c0 0 0 87.79-87.85 87.79h-658.667c-87.79 0-87.79-87.79-87.79-87.79v-197.618h834.306v197.618zM182.637 603.535h175.641v-175.641h-175.641v175.641zM424.15 603.535h175.641v-175.641h-175.641v175.641zM665.723 603.535h175.58v-175.641h-175.58v175.641zM237.581 647.491c0 0-10.989 5.796-10.989 21.917 0 21.555 16.725 58.506 43.894 58.506 27.593 0 43.894-40.694 43.894-58.506 0-16.121-10.989-21.917-10.989-21.917s54.884 0 54.884 65.872c0 63.398-70.884 131.745-87.85 131.745-18.175 0-87.85-69.555-87.85-131.745 0.061-65.872 55.004-65.872 55.004-65.872zM479.094 647.491c0 0-10.989 5.796-10.989 21.917 0 21.555 16.725 58.506 43.894 58.506 27.653 0 43.894-40.694 43.894-58.506 0-16.121-10.989-21.917-10.989-21.917s54.884 0 54.884 65.872c0 63.398-70.823 131.745-87.79 131.745-18.175 0-87.85-69.555-87.85-131.745 0-65.872 54.945-65.872 54.945-65.872zM720.547 647.491c0 0-10.989 5.796-10.989 21.917 0 21.555 16.725 58.506 43.955 58.506 27.593 0 43.955-40.694 43.955-58.506 0-16.121-10.989-21.917-10.989-21.917s54.823 0 54.823 65.872c0 63.398-70.884 131.745-87.79 131.745-18.175 0-87.79-69.555-87.79-131.745 0-65.872 54.823-65.872 54.823-65.872z"  horiz-adv-x="1024" />

    
    <glyph glyph-name="tjGrouping" unicode="&#58903;" d="M980.012417 127.71047499999997c-17.316846 17.293563-41.673406 28.189226-68.599249 28.189226l-90.389564 0c-26.921794 0-50.6497-10.894651-68.599249-28.189226-17.316846-17.939427-28.198337-41.658221-28.198337-68.585077l0-90.352107c0-26.925843 10.881491-51.275317 28.198337-68.590139 17.94955-17.29255 41.678468-28.18214 68.599249-28.18214l90.389564 0c26.926856 0 51.282403 10.889589 68.599249 28.18214 17.316846 17.314821 28.203398 41.665308 28.203398 68.590139l0 90.352107C1008.215815 86.05225299999995 997.329263 109.77104799999995 980.012417 127.71047499999997zM950.527414-31.226710000000026c0-10.894651-4.502825-20.505673-11.541527-27.557535-7.059961-7.055911-16.662884-11.546589-27.573732-11.546589l-90.389564 0c-10.909836 0-20.512759 4.489665-27.573732 11.546589-7.039714 7.051862-10.889589 16.662884-10.889589 27.557535l0 90.352107c0 10.889589 3.849875 20.501623 10.889589 27.557535 7.059961 7.05085 16.662884 10.909836 27.573732 10.909836l90.389564 0c10.909836 0 20.512759-3.859998 27.573732-10.909836 7.038702-7.05085 11.541527-16.667945 11.541527-27.557535L950.527414-31.226710000000026zM549.850864 155.89970100000005l-90.412847 0c-26.904584 0-51.282403-10.894651-68.576978-28.189226-17.94955-17.939427-28.205423-41.658221-28.205423-68.585077l0-90.352107c0-26.925843 10.256886-51.275317 28.205423-68.590139 17.294575-17.29255 41.678468-28.18214 68.576978-28.18214l90.412847 0c26.265807 0 50.6497 10.889589 68.593176 28.18214 17.299637 17.314821 28.209472 41.665308 28.209472 68.590139l0 90.352107c0 26.926856-10.909836 50.64565-28.209472 68.585077C600.500564 145.00403700000004 576.116671 155.89970100000005 549.850864 155.89970100000005zM588.306086-31.226710000000026c0-10.894651-3.842789-20.505673-10.904774-27.557535-7.037689-7.055911-17.294575-11.546589-27.550448-11.546589l-90.412847 0c-10.887565 0-20.512759 4.489665-27.552473 11.546589-7.038702 7.051862-11.541527 16.662884-11.541527 27.557535l0 90.352107c0 10.889589 4.501813 20.501623 11.541527 27.557535 7.038702 7.05085 16.664908 10.909836 27.552473 10.909836l90.412847 0c10.256886 0 20.512759-3.859998 27.550448-10.909836 7.061985-7.05085 10.904774-16.667945 10.904774-27.557535L588.306086-31.226710000000026zM618.444039 851.266333c-17.943476 17.303686-42.327369 28.199349-68.593176 28.199349l-90.412847 0c-26.89851 0-51.282403-10.894651-68.576978-28.199349-17.94955-17.9455-28.205423-42.300036-28.205423-68.574954l0-90.363243c0-26.919769 10.256886-51.275317 28.205423-68.579003 17.294575-17.9455 41.678468-28.199349 68.576978-28.199349l90.412847 0c26.265807 0 50.6497 10.253849 68.593176 28.199349 17.299637 17.303686 28.209472 41.659234 28.209472 68.579003L646.653512 782.691379C646.653512 808.965284 635.743676 833.325894 618.444039 851.266333zM588.306086 692.327124c0-10.893639-3.842789-20.505673-10.904774-27.556522-7.037689-7.05085-17.294575-11.540515-27.550448-11.540515l-90.412847 0c-10.887565 0-20.512759 4.489665-27.552473 11.540515-7.038702 7.051862-11.541527 16.662884-11.541527 27.556522L420.344017 782.691379c0 10.252836 4.501813 20.506685 11.541527 27.556522 7.038702 6.409035 16.664908 10.889589 27.552473 10.889589l90.412847 0c10.256886 0 20.512759-3.83874 27.550448-10.889589 7.061985-7.049837 10.904774-17.303686 10.904774-27.556522L588.306086 692.327124zM113.907918 217.43797700000005c0-8.333466 3.217172-15.385328 8.344602-20.505673 5.123381-5.142615 12.166132-8.334479 20.507697-8.334479 7.692664 0 15.384316 3.191863 20.512759 8.334479 5.12743 5.120344 8.323343 12.172206 8.323343 20.499599L171.596319 369.325324l303.87289 0 0-151.892409c0-8.327393 3.217172-15.379254 8.344602-20.499599 5.129455-5.142615 12.822119-8.986417 20.512759-8.986417 8.324356 0 15.385328 3.842789 20.512759 8.986417 5.12743 5.120344 8.340553 12.172206 8.340553 20.499599L533.179882 369.325324l303.878964 0 0-151.887347c0-8.333466 3.1949-15.385328 8.972244-20.505673 5.12743-5.142615 12.166132-8.986417 20.511747-8.986417 7.692664 0 14.731366 3.842789 20.512759 8.986417 5.129455 5.120344 8.324356 12.172206 8.324356 20.505673L895.37995 398.159402c0 7.693677-3.1949 15.385328-8.324356 20.506685-5.781393 5.13148-12.820095 8.333466-20.512759 8.333466l-332.731263 0L533.811573 534.02568c0 7.693677-3.843801 14.744526-8.971232 20.505673-5.12743 5.133504-12.189416 8.335491-20.512759 8.335491-7.691652 0-15.384316-3.201987-20.512759-8.335491-5.12743-5.761146-8.344602-12.811996-8.344602-20.505673l0-107.026127L142.766291 426.999553c-8.346627 0-15.385328-3.201987-20.512759-8.333466-5.12743-5.121357-8.998565-12.814021-8.998565-20.506685l0.653963 0L113.90893 217.43797700000005zM187.634598 155.89970100000005l-90.413859 0c-26.90256 0-50.627428-10.894651-68.576978-28.189226-17.316846-17.939427-28.204411-41.658221-28.204411-68.585077l0-90.352107c0-26.925843 10.887565-51.275317 28.204411-68.590139 17.94955-17.29255 41.674419-28.18214 68.576978-28.18214l90.413859 0c26.919769 0 51.275317 10.889589 68.592163 28.18214 17.94955 17.314821 28.205423 41.665308 28.205423 68.590139l0 90.352107c0 26.926856-10.256886 50.64565-28.205423 68.585077C238.909915 145.00403700000004 214.554367 155.89970100000005 187.634598 155.89970100000005zM226.721512-31.226710000000026c0-10.894651-4.473468-20.505673-11.513182-27.557535-7.066034-7.055911-16.691229-11.546589-27.572719-11.546589l-90.413859 0c-10.254861 0-20.511747 4.489665-27.550448 11.546589-7.044776 7.051862-10.909836 16.662884-10.909836 27.557535l0 90.352107c0 10.889589 3.86506 20.501623 10.909836 27.557535 7.038702 7.05085 16.662884 10.909836 27.550448 10.909836l90.413859 0c10.881491 0 20.507697-3.859998 27.572719-10.909836 7.038702-7.05085 11.513182-16.667945 11.513182-27.557535L226.721512-31.226710000000026z"  horiz-adv-x="1024" />

    
    <glyph glyph-name="android" unicode="&#58894;" d="M383.23602347 681.25364444q9.76182827 0 16.75894293 6.99711466t6.99711467 16.75894294-6.99711467 16.75894293-16.75894293 6.99711467-16.45175254-6.99711467-6.68992426-16.75894293 6.68992426-16.75894294 16.45175254-6.99711466zM640.42265387 681.25364444q9.76182827 0 16.45175253 6.99711466t6.68992427 16.75894294-6.68992427 16.75894293-16.45175253 6.99711467-16.75894294-6.99711467-6.99711466-16.75894293 6.99711466-16.75894294 16.75894294-6.99711466zM145.50478613 569.09501617q25.5992 0 43.89409494-18.29489493t18.29489493-43.89409494l0-262.10167573q0-26.2135808-17.98770453-44.50847573t-44.20128534-18.29489494-44.50847573 18.29489494-18.29489493 44.50847573l0 262.10167573q0 25.5992 18.29489493 43.89409494t44.50847573 18.29489493zM791.59446293 557.52417777l0-405.93504747q0-28.02259093-19.48952426-47.54624746t-46.93186667-19.48952427l-45.70310507 0 0-138.37220907q0-26.2135808-18.29489493-44.50847573t-44.50847573-18.29489493-44.50847574 18.29489493-18.29489493 44.50847573l0 138.37220907-84.10190507 0 0-138.37220907q0-26.2135808-18.29489493-44.50847573t-44.50847573-18.29489493q-25.5992 0-43.89409494 18.29489493t-18.29489493 44.50847573l-0.6143808 138.37220907-45.08872427 0q-28.02259093 0-47.54624746 19.48952427t-19.48952427 47.54624746l0 405.93504747 559.53024853 0zM650.18448213 804.3687303q65.2267616-33.51788587 104.2399424-93.55654293t39.0131808-131.34096213l-563.79678186 0q0 71.30230507 39.0131808 131.34096213t104.82019093 93.55654293l-43.27971413 79.83537174q-4.26653333 7.91868587 3.03777173 12.1852192 7.91868587 3.65215253 12.1852192-3.65215254l43.89409493-80.44975253q57.88832427 25.5992 122.50070507 25.5992t122.50070507-25.5992l43.89409493 80.44975253q4.26653333 7.30430507 12.1852192 3.65215254 7.30430507-4.26653333 3.03777173-12.1852192zM940.9231296 506.94015857l0-262.10167573q0-26.2135808-18.29489493-44.50847574t-44.50847574-18.29489493q-25.5992 0-43.89409493 18.29489493t-18.29489493 44.50847574l0 262.10167573q0 26.2135808 18.29489493 44.20128533t43.89409493 17.98770454q26.2135808 0 44.50847574-17.98770454t18.29489493-44.20128533z"  horiz-adv-x="1024" />

    
    <glyph glyph-name="zuzhijiagou" unicode="&#59103;" d="M835.858 312.418h-102.926l-102.923 177.029c24.7 12.349 41.17 41.166 41.17 69.985v164.678c0 45.291-37.056 82.341-82.34 82.341h-164.677c-45.284 0-82.336-37.052-82.336-82.341v-164.677c0-28.819 16.467-53.518 41.166-69.985l-102.923-177.030h-102.922c-45.291 0-82.341-37.052-82.341-82.34v-164.677c0-45.284 37.052-82.336 82.341-82.336h164.677c45.283 0 82.336 37.052 82.336 82.336v53.522h164.677v-53.522c0-45.284 37.052-82.336 82.34-82.336h164.677c45.284 0 82.336 37.052 82.336 82.336v164.677c0 45.289-37.052 82.34-82.336 82.34v0zM424.162 180.674v49.405c0 41.17-32.938 78.222-74.103 82.34l94.688 164.677h119.393l94.688-164.677c-41.17-4.117-74.102-37.052-74.102-82.34v-49.405h-160.563zM424.162 180.674z"  horiz-adv-x="1024" />

    
    <glyph glyph-name="qiehuanxitong" unicode="&#58911;" d="M251.32692112 537.93682807l55.77823055 226.81338115-224.37040415-64.9088335 63.09711162-60.56539237c-138.67199178-186.04463839-136.41319968-438.52853063 17.17618493-600.7947541l56.04780988 56.04780984c-125.02213233 133.52148026-128.54678402 338.63607211-19.34623162 493.03922609L251.32692112 537.93682807zM838.73804724 666.30277179c116.61822563-140.8403645 108.21097098-345.77411761-10.20892979-493.48964245l-48.63348445 52.61190361-69.24725287-222.92538139 227.80128858 51.34771792-59.11534622 64.18213573c149.24929299 177.4565467 162.08203689 429.48667154 18.61953387 600.79475409L838.73804724 666.30277179z"  horiz-adv-x="1024" />

    
    <glyph glyph-name="ai45" unicode="&#59043;" d="M11.3136347-70.54741218000004l181.84545838 0 0 545.4741156-181.84545838 0L11.3136347-70.54741218000004zM1011.36033221 429.44281904c0 49.97067377-40.87919621 90.89093663-90.88563809 90.89093663l-286.3835482 0 45.40837654 209.10797092 0 13.65377607c0 18.21210034-9.05703507 36.35664003-18.1127471 49.97597361l-50.06870269 45.47858584-299.9684393-300.00420611c-18.17633226-13.65377606-27.30092798-36.35134019-27.30092798-63.61915129l0-454.58450329c0-49.97067377 40.9494055-90.88961231 90.95452306-90.88961231l409.10591745 0c36.35134019 0 68.1814498 22.70816251 81.83522587 54.56873907l136.36289831 322.70574446c4.52785602 9.05571075 4.52785602 22.7055126 4.52785602 31.82480978l0 90.89093662L1011.36033221 429.44281904C1011.36033221 424.88052052 1011.36033221 429.44281904 1011.36033221 429.44281904"  horiz-adv-x="1024" />

    
    <glyph glyph-name="users" unicode="&#58910;" d="M768 125.37856l0 52.77696c70.49216 39.7312 128 138.77248 128 237.83424 0 159.06816 0 288.01024-192 288.01024s-192-128.94208-192-288.01024c0-99.06176 57.50784-198.10304 128-237.83424l0-52.77696c-217.10848-17.75616-384-124.416-384-253.37856l896 0c0 128.96256-166.89152 235.64288-384 253.37856zM327.18848 100.67968c55.31648 36.1472 124.08832 63.63136 199.7824 80.40448-15.0528 17.77664-28.71296 37.62176-40.48896 59.02336-30.4128 55.23456-46.4896 116.06016-46.4896 175.90272 0 86.03648 0 167.30112 30.59712 233.75872 29.696 64.512 83.12832 104.48896 159.232 119.48032-16.91648 76.47232-61.93152 126.75072-181.82144 126.75072-192 0-192-128.94208-192-288.01024 0-99.06176 57.50784-198.10304 128-237.83424l0-52.77696c-217.10848-17.75616-384-124.416-384-253.37856l278.99904 0c14.52032 12.9024 30.59712 25.16992 48.18944 36.67968z"  horiz-adv-x="1152" />

    
    <glyph glyph-name="weibiaoti2fuzhi12" unicode="&#58921;" d="M768 230.4c-6.4 6.4-12.8 12.8-19.2 12.8-19.2 0-32-12.8-32-32 0-12.8 6.4-19.2 12.8-25.6l0 0 0 0c76.8-57.6 128-147.2 134.4-249.6l57.6 0C915.2 57.6 857.6 160 768 230.4M524.8 339.2c-115.2 0-211.2 96-211.2 211.2C307.2 672 403.2 768 524.8 768c115.2 0 211.2-96 211.2-211.2C736 435.2 640 339.2 524.8 339.2zM800 550.4c0 153.6-121.6 281.6-281.6 281.6C371.2 832 243.2 710.4 243.2 550.4c0-102.4 57.6-192 140.8-243.2C224 262.4 108.8 115.2 102.4-64l57.6 0C166.4 121.6 320 268.8 505.6 275.2l6.4 0c6.4 0 6.4 0 12.8 0C678.4 275.2 800 396.8 800 550.4z"  horiz-adv-x="1024" />

    
    <glyph glyph-name="tongxunlu" unicode="&#59074;" d="M711.602525 508.208906l215.391628 0c16.918321 0 29.658484-8.594749 29.658484-26.744107 0-18.154475-14.712073-26.749224-31.629371-26.749224L711.602525 454.715575c-16.925485 0-30.656207 8.594749-30.656207 26.749224C680.946318 499.615181 694.677041 508.208906 711.602525 508.208906zM956.088796 358.900346c0-18.151405-12.748349-26.752294-29.661553-26.752294L757.275751 332.148052c-16.925485 0-30.65723 8.597819-30.65723 26.752294 0 18.149359 13.731746 26.743084 30.65723 26.743084l170.132842 0C944.324868 385.64343 956.088796 377.049704 956.088796 358.900346zM800.847106 81.614042c0-39.784098-32.308847-64.12446-72.02643-64.12446L466.867592 17.489582l-84.297918 0-245.941412 0c-39.711444 0-72.024383 24.337291-72.024383 64.12446l0 17.287735c0 36.45426 26.839275 68.769246 61.099566 81.065294l146.643871 65.364707c0 0 39.749306 12.218276 50.631144 24.411993 7.239891 8.121981 9.473769 34.901905 0.296759 52.481282-9.174963 17.577331-83.47825 114.289999-83.47825 195.409528 0 130.822534 85.99149 236.876965 192.06127 236.876965 106.073874 0 192.058201-106.054431 192.058201-236.876965 0-84.695984-83.380012-177.934528-90.234117-200.878077-6.859221-22.943548-7.41283-40.902572 0.333598-48.523133 12.050454-11.843746 43.062771-23.88806 43.062771-23.88806l162.670893-63.391772c34.262338-12.301164 61.10059-45.601594 61.10059-82.055854L800.847106 81.614042 800.847106 81.614042zM926.918429 216.700693 813.853327 216.700693c-16.921391 0-30.653137 8.594749-30.653137 26.752294 0 18.147312 13.731746 26.743084 30.653137 26.743084l114.049522 0c16.921391 0 29.647227-8.594749 29.647227-26.743084C957.549054 225.298512 943.837774 216.700693 926.918429 216.700693z"  horiz-adv-x="1024" />

    
    <glyph glyph-name="dui" unicode="&#58914;" d="M416.058904 119.205195c-10.475586 0-20.951171 3.996011-28.943193 11.989055L131.272789 387.037173c-15.985066 15.985066-15.985066 41.901319 0 57.886385s41.901319 15.985066 57.886385 0l226.898707-226.898707 418.780899 418.780899c15.985066 15.985066 41.901319 15.985066 57.886385 0s15.985066-41.901319 0-57.886385L445.002097 131.19425C437.010075 123.202229 426.53449 119.205195 416.058904 119.205195z"  horiz-adv-x="1024" />

    
    <glyph glyph-name="guanyu" unicode="&#58958;" d="M505.165109 895.948802C222.451502 892.211371-3.714264 659.901883 0.074365 377.11148000000003c3.76303-282.585613 236.072518-508.828176 518.786125-505.039547s508.879373 236.072518 505.065146 518.862921C1020.213803 673.5716649999999 787.853118 899.737431 505.165109 895.948802L505.165109 895.948802 505.165109 895.948802zM561.917741 725.332523c52.016846 0 67.40175-30.181034 67.40175-64.688273 0-43.185246-34.584035-83.017043-93.48697-83.017043-49.303369 0-72.751908 24.805278-71.369571 65.737825C464.48855 677.897869 493.415241 725.332523 561.917741 725.332523L561.917741 725.332523zM428.47098 64.037646c-35.58239 0-61.590813 21.605422-36.759937 116.551526l40.804554 168.286785c7.039681 26.981179 8.217228 37.78389 0 37.78389-10.649118 0-56.855027-18.661556-84.143393-36.990326l-17.739997 29.105883c86.549684 72.239931 186.052381 114.657212 228.700051 114.657212 35.556791 0 41.444525-42.084496 23.704527-106.798367l-46.743485-176.964792c-8.242827-31.281784-4.684588-42.084496 3.558239-42.084496 10.649118 0 45.642735 12.927415 80.021979 39.959792l20.095091-26.981179C555.850816 96.44578000000001 464.078968 64.037646 428.47098 64.037646L428.47098 64.037646 428.47098 64.037646z"  horiz-adv-x="1024" />

    
    <glyph glyph-name="solid-person" unicode="&#58944;" d="M907.008 123.051l-198.016 80.768c0 0-37.76 15.317-52.437 30.421-9.429 9.728-8.747 32.597-0.427 61.781s109.824 147.968 109.824 255.829c0 166.613-104.661 301.653-233.771 301.653-129.109 0-233.771-135.040-233.771-301.653 0-103.296 90.453-226.517 101.632-248.875s8.448-56.491-0.384-66.816c-13.269-15.531-61.611-31.104-61.611-31.104l-178.517-83.243c-41.728-15.659-74.368-56.832-74.368-103.253v-22.016c0-50.688 39.339-81.707 87.68-81.707h720.896c48.384 0 87.723 31.019 87.723 81.707v22.016c-0.043 46.379-32.768 88.832-74.453 104.491z"  horiz-adv-x="1024" />

    
    <glyph glyph-name="jianhao" unicode="&#58895;" d="M512 864C246.912 864 32 649.088 32 384c0-265.088 214.912-480 480-480s480 214.912 480 480c0 265.088-214.912 480-480 480z m256-512H256v64h512v-64z"  horiz-adv-x="1024" />

    
    <glyph glyph-name="Plus" unicode="&#58891;" d="M925.258115 354.443847h-826.831408c-16.954137 0-30.699186 13.745049-30.699186 30.699186s13.745049 30.699186 30.699186 30.699186h826.831408c16.954137 0 30.699186-13.745049 30.699186-30.699186s-13.745049-30.699186-30.699186-30.699186zM511.842411-58.971857c-16.954137 0-30.699186 13.745049-30.699186 30.699186v826.831408c0 16.954137 13.745049 30.699186 30.699186 30.699186s30.699186-13.745049 30.699186-30.699186v-826.831408c0-16.954137-13.745049-30.699186-30.699186-30.699186z"  horiz-adv-x="1024" />

    
    <glyph glyph-name="ios" unicode="&#58892;" d="M521.996 659.402c13.596 0.316 26.587 2.344 38.944 5.874l1.477-1.023c25.485 8.525 47.394 21.707 65.751 38.675l-25.33-22.506c28.822 15.94 52.712 37.447 70.922 63.249l-36.429-39.535c28.139 24 50.335 54.116 64.645 88.349l-34.464-58.168c22.406 27.513 39.057 60.636 47.571 96.894l-25.474-60.785c14.141 25.287 23.872 54.935 27.305 86.475l-11.137-47.132c6.314 18.235 10.235 39.273 10.832 61.141-0.92-14.951-0.492-7.646-0.492-0.24 0 7.406-0.428 14.711-1.261 21.894-114.436-13.762-202.632-110.063-202.632-226.963 0-1.99 0.026-3.974 0.076-5.952zM813.027 279.983c-9.291 23.371-14.678 50.452-14.678 78.791 0 2.616 0.046 5.222 0.137 7.816 0.877 22.699 5.309 44.464 12.755 64.776 8.765 26.429 27.096 55.391 50.856 78.871 1.828 9.48 42.301 41.542 89.752 59.323-84.33 32.038-144.712 69.372-214.043 76.759 0.404 0.843-15.633 2.529-32.046 2.637l-53.878-0.333-15.629-4.312-11.857-3.773-15.091-5.389-10.779-8.623-17.785-7.006-14.552-5.928-10.24-3.773-12.396-3.773h-7.006c-2.507-0.304-5.41-0.478-8.354-0.478s-5.847 0.174-8.699 0.511c-2.079-0.302-4.891-0.455-7.739-0.455-2.848 0-5.659 0.153-8.427 0.452l-5.585-0.030-11.857 3.234-8.623 3.234-12.396 3.234-20.48 8.084-8.084 2.695-14.552 5.389-9.701 3.234-13.474 4.312h-10.24l-14.013 2.695h-10.779l-12.935 3.773c-35.215-0.199-68.68-7.463-99.123-20.442-100.455-45.409-170.936-147.27-170.936-265.593 0-6.498 0.213-12.947 0.631-19.339l-0.046-53.025c0-4.312 0-19.402 3.773-29.103s0-10.779 3.234-16.168 3.234-17.246 5.389-25.869 3.234-11.318 4.851-16.707 4.312-16.168 7.006-24.253 4.312-11.857 6.467-17.785l8.084-22.636 7.545-17.246c3.234-7.006 5.928-14.552 9.162-21.558l8.084-16.168 10.779-21.019 9.162-15.629 11.318-19.402 21.558-32.337 10.24-13.474 12.396-15.629 10.779-12.396 12.396-13.474 11.318-10.779 12.396-11.318 11.318-8.623 12.396-9.162 11.318-6.467 11.857-6.467 10.779-3.773 11.857-3.773 14.013-4.312h12.396c17.291 0.666 33.606 3.944 48.855 9.45 35.686 19.327 84.485 32.203 136.187 33.26-11.243-0.381-6.541-0.215-1.8-0.215 4.741 0 9.443-0.166 14.101-0.492l7.996 0.035 14.552-3.234 9.162-2.695 11.318-3.773 9.701-3.773 14.013-5.928 12.396-5.389 8.084-2.695 10.779-3.773h45.811c39.742 3.516 74.688 21.631 99.914 48.874 71.609 68.094 126.848 162.124 151.674 267.874-5.067-48.749 17.64 18.78 26.966 90.511-106.339-115.262-156.75-58.206-177.238 11.642z"  horiz-adv-x="1024" />

    
    <glyph glyph-name="gonggaoguanli" unicode="&#58982;" d="M107.328 548.352h97.088v-219.52h-97.088v219.52zM260.864 577.6s337.92 12.352 515.136 223.424c0 0 151.616 36.224 140.032-361.28 0 0 16.128-273.728-138.624-312.256 0 0-116.16 150.656-516.48 168.96l-0.064 281.152zM323.776 230.080s14.208-128.896 118.72-263.808c0 0 90.816-4.032 104.512 33.472 0 0 9.664 24.832-19.264 56.832-9.28 14.72-91.584 84.224-105.024 173.504h-98.944z"  horiz-adv-x="1024" />

    
    <glyph glyph-name="qiandao-kaoqindaqia" unicode="&#58923;" d="M512 832c-192 0-339.2-153.6-345.6-345.6 0-140.8 192-403.2 288-524.8 25.6-32 76.8-32 102.4-6.4l6.4 6.4c96 128 288 384 288 524.8C851.2 678.4 704 832 512 832z m0-569.6c-121.6 0-224 102.4-224 224s102.4 224 224 224 224-102.4 224-224-102.4-224-224-224zM544 608h-64v-192h192v64H544V608z"  horiz-adv-x="1024" />

    
    <glyph glyph-name="wrong" unicode="&#59069;" d="M863.4930315 735.4930315c-194.1186029 194.1186029-508.86746011 194.1186029-703.02748823 0-194.1186029-194.1186029-194.1186029-508.86746011 0-703.02748823s508.86746011-194.1186029 703.02748823 0c194.16002813 194.16002813 194.16002813 508.90888533 0 703.02748823z m-175.72580314-585.83552759L512 325.42473228999995l-175.76722836-175.76722838a41.42522469 41.42522469 0 1 0-58.57526773 58.57526773L453.42473229 384l-175.76722838 175.76722836a41.42522469 41.42522469 0 1 0 58.57526773 58.57526773L512 442.57526771l175.76722836 175.76722838a41.38379947 41.38379947 0 1 0 58.57526773-58.57526773L570.57526771 384l175.76722838-175.76722836a41.38379947 41.38379947 0 1 0-58.57526773-58.57526773z"  horiz-adv-x="1024" />

    
    <glyph glyph-name="kaoqin" unicode="&#58975;" d="M801.14176 365.6448c0-217.07264-143.04256-382.82752-294.25152-382.82752-151.20384 0-294.25152 165.73952-294.25152 382.82752 0 217.08288 143.04768 382.8224 294.25152 382.8224 151.20384 0 294.25152-165.73952 294.25152-382.8224zM984.45312 341.4272a24.23296 24.23296 0 0 0-24.22272 25.07776c0.19456 5.38112 0.29184 10.78272 0.29184 16.21504 0 124.928-52.53632 245.34528-144.13824 330.37312a24.2176 24.2176 0 0 0 32.95232 35.50208c101.44256-94.16192 159.63136-227.52256 159.63136-365.8752a508.2624 508.2624 0 0 0-0.32256-17.92512 24.2176 24.2176 0 0 0-24.192-23.36768zM785.60256 746.56256a24.10496 24.10496 0 0 0-14.32064 4.70528c-40.4736 29.74208-83.89632 50.02752-140.79488 65.79712a24.2176 24.2176 0 1 0 12.928 46.67392c62.82752-17.40288 111.10912-40.05376 156.544-73.44128a24.2176 24.2176 0 0 0-14.35648-43.73504zM236.9024 743.46496a24.22272 24.22272 0 0 0-14.21824 43.84256C309.34016 850.0224 405.9648 881.8176 509.86496 881.8176c25.472 0 44.73344-2.00192 65.82272-5.01248a24.2176 24.2176 0 1 0-6.84032-47.95392c-19.58912 2.7904-36.29056 4.52608-58.98752 4.52608-93.4912 0-180.56192-28.70272-258.78528-85.31456a24.09472 24.09472 0 0 0-14.17216-4.59776zM35.10784 346.9824a24.2176 24.2176 0 0 0-24.19712 23.63392 500.1216 500.1216 0 0 0-0.14336 12.09856c0 138.5728 58.3424 272.0768 160.06656 366.27968a24.2176 24.2176 0 0 0 32.91136-35.54304c-91.85792-85.06368-144.54272-205.61408-144.54272-330.73664 0-3.65568 0.04096-7.30112 0.128-10.9312a24.2176 24.2176 0 0 0-23.62368-24.79616l-0.59904-0.00512zM782.4896-42.04544c-3.2 0-6.4512 0.64-9.56928 1.98656a24.21248 24.21248 0 0 0-12.66176 31.8208c107.14624 248.75008 113.58208 450.20672 18.6112 582.59456-82.58048 115.10784-215.1936 143.81568-266.48576 139.65824a24.2176 24.2176 0 1 0-3.89632 48.27648c71.3216 5.69344 218.49088-32.512 309.7344-159.70304 73.50784-102.46656 130.8416-294.9376-13.48608-629.98528a24.20736 24.20736 0 0 0-22.2464-14.64832zM259.87072 606.88384a24.22272 24.22272 0 0 0-17.9712 40.448c67.08736 74.32192 156.2368 97.95072 185.53344 105.71264 2.19136 0.57856 3.92192 1.03424 5.12512 1.39264a24.22272 24.22272 0 0 0 13.7984-46.43328c-1.536-0.45568-3.73248-1.04448-6.51776-1.78176-25.856-6.85056-104.54016-27.70432-161.98656-91.35104a24.1664 24.1664 0 0 0-17.98144-7.9872zM71.97696 179.48672a24.2176 24.2176 0 0 0-11.86304 45.34272c45.952 25.74848 57.5744 97.1008 69.87776 172.63616 9.88672 60.66176 20.10112 123.38176 50.62144 167.52128a24.2176 24.2176 0 1 0 39.84384-27.5456c-24.30976-35.15904-33.6384-92.40576-42.65984-147.7632-13.61408-83.54304-27.68896-169.9328-94.0032-207.09888a24.1152 24.1152 0 0 0-11.81696-3.09248zM122.14784 59.60192a24.2176 24.2176 0 0 0-14.0544 43.9552c117.07904 83.2768 129.8944 181.74464 142.28992 276.97152 10.93632 84.0448 22.25152 170.95168 116.61312 219.39712a24.2176 24.2176 0 1 0 22.1184-43.08992c-71.73632-36.82816-80.10752-101.13536-90.70592-182.5536-12.44672-95.6416-27.93984-214.66112-162.24256-310.19008a24.07424 24.07424 0 0 0-14.01856-4.49024zM680.04864 527.88224a24.14592 24.14592 0 0 0-17.10592 7.07072c-91.02336 90.79808-213.4272 51.52768-214.656 51.1232a24.2176 24.2176 0 1 0-15.27296 45.96224c6.15936 2.048 152.19712 48.86016 264.1408-62.7968a24.2176 24.2176 0 0 0-17.10592-41.35936zM747.54048 293.21728a24.1664 24.1664 0 0 0-5.84192 0.72192 24.20736 24.20736 0 0 0-17.68448 29.32736c18.73408 75.648-33.3824 164.99712-33.90976 165.888a24.2176 24.2176 0 0 0 41.68704 24.65792c2.57024-4.34688 62.67904-107.52 39.22944-202.1888a24.21248 24.21248 0 0 0-23.48032-18.4064zM614.16448-98.56a17.92512 17.92512 0 0 0-10.27584 32.6144c25.36448 20.4032 108.46208 263.55712 114.88768 295.07584a17.93024 17.93024 0 0 0 17.24416 15.98976c9.80992 0.27136 18.17088-7.44448 18.4832-17.33632 0.38912-12.17536-39.13728-125.56288-49.792-154.93632-54.46144-150.13376-72.576-162.78528-80.31232-168.18688a17.8176 17.8176 0 0 0-10.23488-3.22048zM204.27776-21.51936a24.21248 24.21248 0 0 0-13.73184 44.1856c1.8176 1.2544 181.86752 128.22016 179.47648 370.05312a24.2176 24.2176 0 0 0 23.97696 24.45824c13.2864-0.04096 24.32-10.60352 24.45824-23.97696 2.65728-268.40576-192.2304-404.8128-200.52992-410.49088a24.07424 24.07424 0 0 0-13.64992-4.22912zM458.6496-110.51008a24.2176 24.2176 0 0 0-16.09728 42.32192c118.74304 105.5744 162.99008 338.10432 162.99008 459.86816 0 44.26752-45.33248 84.5824-95.104 84.5824-51.72736 0-90.83904-53.26848-91.96544-89.18016-0.41984-13.3632-11.6224-23.89504-24.96512-23.44448a24.2176 24.2176 0 0 0-23.44448 24.96512c1.9712 62.93504 63.7184 136.09472 140.37504 136.09472 76.4672 0 143.54432-62.1568 143.54432-133.0176 0-135.34208-47.73888-379.14112-179.24608-496.07168a24.17152 24.17152 0 0 0-16.08704-6.1184zM330.26048-79.2576a24.2176 24.2176 0 0 0-14.0032 43.99104c62.72 44.36992 178.54464 260.49536 169.99936 416.6656a24.2176 24.2176 0 0 0 22.8608 25.50784c13.27104 0.67584 24.77568-9.50272 25.50272-22.8608 9.86112-180.3008-119.3728-408.61696-190.39744-458.8544a24.0896 24.0896 0 0 0-13.96224-4.44928zM614.14912-98.56a17.92512 17.92512 0 0 0-12.39552 30.86336c29.67552 28.41088 112.01024 273.20832 117.02272 296.832a17.93024 17.93024 0 0 0 17.24416 15.98464c9.80992 0.27136 18.17088-7.44448 18.4832-17.33632 0.4096-12.78976-88.36096-283.44832-127.96416-321.37216a17.85344 17.85344 0 0 0-12.3904-4.97152zM614.14912-98.56a17.92512 17.92512 0 0 0-12.83072 30.42816c33.6128 34.47808 112.94208 275.6864 117.45792 297.20064a17.92 17.92 0 0 0 17.24928 16.0512c9.80992 0.27136 18.17088-7.44448 18.4832-17.33632 0.5888-18.31936-86.60992-278.94784-127.52384-320.93696a17.92 17.92 0 0 0-12.83584-5.40672zM614.12864-104.8576a24.22784 24.22784 0 0 0-19.70176 38.27712c64.16896 90.05568 114.33472 273.35168 118.02624 295.64416a24.2176 24.2176 0 0 0 23.3728 22.35392c13.22496 0.52224 24.5504-10.0608 24.98048-23.42912 0.50176-15.52384-54.07744-220.43136-126.92992-322.67776a24.18688 24.18688 0 0 0-19.74784-10.16832z m98.29888 333.55264c-0.09216-1.024-0.04608-1.78688-0.03072-2.25792a23.68 23.68 0 0 0 0.03072 2.25792z"  horiz-adv-x="1024" />

    
    <glyph glyph-name="biaoqian" unicode="&#58893;" d="M1022 288.7c0.3 23.1-8.6 45.3-24.8 61.8L515.9 831.3c-20 18.6-43.2 33.5-68.4 43.8-24.8 11.2-51.5 17.3-78.7 18H88.4C41.1 892.2 2.9 853.9 2 806.5v-279.7C4.9 472.1 26.7 420 63.7 379.6l481.4-481.9c15.9-16.3 37.8-25.2 60.5-24.7 23.1-0.3 45.3 8.6 61.8 24.7L997.2 228c15.9 16.3 24.8 38 24.8 60.7zM278 615.6c-33.5-34.4-88.5-35.1-122.8-1.6s-35.1 88.5-1.6 122.9c33.5 34.4 88.5 35.1 122.8 1.6 16.8-16.3 26.2-38.8 26.2-62.2 1.1-22.9-7.9-45.1-24.6-60.7z"  horiz-adv-x="1024" />

    
    <glyph glyph-name="renwen" unicode="&#58925;" d="M955.6 720c0 48.6-39.4 87.9-87.9 87.9-17.1 0-33.1-4.9-46.6-13.4l-0.4 0.4-2.8-2.5c-6.5-4.5-12.4-9.9-17.5-15.9L411.9 423.6c33-7.2 64.7-21.6 92.4-43.3 41.4-32.5 67.9-75.4 79.6-121.2l342.6 395.5c5.5 4.9 10.3 10.5 14.4 16.7l1.2 1.4-0.2 0.2c8.6 13.5 13.7 29.7 13.7 47.1z m-508-400.3c-70.5 54.5-171.2 55.7-242.9 2.7-51.4-38-77.6-93.5-78.9-149.4-0.2-3.5-0.2-7.2 0.1-11.1 0.1-1.4 0.1-2.7 0.2-4.1 3.7-67.2-22.2-91.9-48.3-100.1-16.3-5.1-20.4-26.5-6.6-36.5 129-93.2 288.1-82.8 385.9 4.6 2.6 2.3 5.2 4.6 7.7 7 82.9 80.4 77.2 213.9-17.2 286.9z"  horiz-adv-x="1024" />

    
    <glyph glyph-name="saoma" unicode="&#58999;" d="M841.143-128H694.857v73.143h146.286c60.599 0 109.714 49.115 109.714 109.714V201.143H1024v-146.286C1024-46.117 942.117-128 841.143-128z m146.286 475.429H36.57C16.384 347.429 0 363.813 0 384c0 20.187 16.384 36.571 36.571 36.571H987.43c20.187 0 36.571-16.384 36.571-36.571 0-20.187-16.384-36.571-36.571-36.571z m-36.572 365.714c0 60.599-49.115 109.714-109.714 109.714H694.857V896h146.286C942.117 896 1024 814.117 1024 713.143v-146.286h-73.143V713.143z m-877.714 0v-146.286H0V713.143C0 814.117 81.883 896 182.857 896h146.286v-73.143H182.857c-60.599 0-109.714-49.115-109.714-109.714z m0-658.286c0-60.599 49.115-109.714 109.714-109.714h146.286V-128H182.857C81.883-128 0-46.117 0 54.857V201.143h73.143v-146.286z"  horiz-adv-x="1024" />

    
    <glyph glyph-name="sousuo" unicode="&#58945;" d="M1011.143111-51.427556l-248.376889 253.724445c-4.096 4.209778-8.874667 7.395556-13.880889 9.557333 53.361778 71.566222 84.992 160.995556 84.992 257.934222C833.991111 705.194667 647.281778 896 416.995556 896 186.709333 896 0 705.194667 0 469.902222 0 234.496 186.709333 43.804444 416.995556 43.804444c105.699556 0 202.183111 40.163556 275.683555 106.382223 2.048-4.096 4.664889-7.850667 8.078222-11.264l248.263111-253.724445c17.066667-17.521778 44.942222-17.521778 62.122667 0 17.180444 17.408 17.180444 45.966222 0 63.374222zM416.995556 111.047111C223.004444 111.047111 65.763556 271.701333 65.763556 469.902222S223.004444 828.757333 416.995556 828.757333c193.877333 0 351.232-160.654222 351.232-358.855111-0.113778-198.200889-157.354667-358.855111-351.232-358.855111z"  horiz-adv-x="1024" />

    
    <glyph glyph-name="shaixuan" unicode="&#59302;" d="M669.76-128a32 32 0 0 0-32 32V439.232c0 7.424 2.624 14.656 7.36 20.416l268.352 324.096c13.248 15.808 17.024 34.816 12.992 43.456-0.576 1.28-2.24 4.8-12.672 4.8H110.208c-10.432 0-12.096-3.52-12.736-4.864-4.032-8.64-0.192-27.584 12.928-43.264L428.608 457.6a32.128 32.128 0 0 0 9.088-22.336l-0.064-311.616a32 32 0 0 0-64 0l0.064 298.624-310.72 318.72C32.96 776.576 24.192 821.376 39.488 854.208 51.904 880.768 77.632 896 110.208 896h803.648c32.576 0 58.304-15.232 70.656-41.792 15.296-32.832 6.528-77.568-21.888-111.488l-260.864-315.072V-96a32 32 0 0 0-32-32z"  horiz-adv-x="1024" />

    
    <glyph glyph-name="xiuxi" unicode="&#58980;" d="M358.787879 663.789899C328.791919 565.268687 284.056566 475.79798 224.581818 395.377778c7.240404-17.842424 13.446465-34.909091 18.747475-51.2 19.911111 24.694949 38.917172 51.587879 56.888889 80.808081v-323.620202h43.183838V502.820202c22.238384 44.347475 42.666667 92.832323 61.414142 145.583838l-46.028283 15.385859zM616.59798 494.933333h157.220202v40.985859h-174.545455v124.509091h-43.183838v-124.509091H387.232323v-40.985859h150.109091c-40.210101-103.175758-100.072727-196.137374-179.717172-279.143434 12.153535-12.929293 23.143434-25.470707 32.969697-37.49495 75.119192 82.10101 130.19798 173.381818 165.49495 274.101011v-350.901011h43.183838V445.672727c39.046465-108.476768 91.927273-195.490909 158.642425-261.30101 11.377778 13.317172 24.436364 27.280808 39.30505 42.020202-79.515152 65.680808-139.636364 155.151515-180.622222 268.541414z"  horiz-adv-x="1024" />

    
    <glyph glyph-name="jiaban" unicode="&#58983;" d="M135.12 301.293c0 123.68 100.61 224.29 224.268 224.29 31.621 0 61.68-6.648 88.976-18.505a201.668 201.668 0 0 0 53.349 58.756c-42.354 22.85-90.816 35.847-142.324 35.847-165.893 0-300.367-134.495-300.367-300.39 0-148.63 108.04-271.691 249.804-295.78 5.246 25.49 12.856 50.064 22.77 73.414-110.585 13.757-196.477 108.142-196.477 222.368z m205.183 174.025c-12.875 0-23.308-10.454-23.308-23.31V291.52l-74.257-74.236c-9.07-9.112-9.07-23.889 0.02-32.963l9.412-9.391c4.406-4.426 10.253-6.85 16.462-6.85a23.11 23.11 0 0 1 16.48 6.85l86.212 86.21c5.688 5.65 5.627 13.76 5.587 21.949V452.008c0 12.856-10.453 23.31-23.31 23.31h-13.298z m119.677-70.572c0-56.173 28.977-105.517 72.752-134.113 1.261 0.4 2.523 0.842 3.766 1.221 4.586 1.404 9.19 2.724 13.897 3.907a266.188 266.188 0 0 0 12.536 2.863c5.888 1.221 11.835 2.162 18.084 3.044l1.68 0.24 0.984 0.14c2.382 0.361 4.784 0.681 7.37 0.961 10.533 1.083 20.065 1.603 29.117 1.603 9.051 0 18.583-0.52 29.298-1.603 2.404-0.28 4.807-0.6 7.189-0.961l2.123-0.3 0.78-0.12c6.007-0.84 11.955-1.802 17.825-2.984 4.224-0.88 8.41-1.824 12.595-2.883a333.618 333.618 0 0 0 13.759-3.866c1.302-0.4 2.583-0.861 3.884-1.262 43.776 28.598 72.755 77.942 72.755 134.113 0 88.475-71.734 160.208-160.208 160.208-29.98 0-57.954-8.392-81.967-22.73a160.67 160.67 0 0 1-54.729-54.248c-14.78-24.295-23.49-52.71-23.49-83.23z m320.414-218.16c-0.02 0-0.04 0.04-0.06 0.04-5.549 4.465-11.256 8.65-17.103 12.634-0.32 0.24-0.642 0.421-0.96 0.663-15.982 10.793-32.964 19.786-50.766 26.835a0.55 0.55 0 0 0-0.24 0.081c-2.264 0.9-4.486 1.921-6.77 2.743-4.065 1.443-8.19 2.703-12.336 3.945-2.984 0.942-6.006 1.763-9.033 2.583-0.98 0.24-1.943 0.542-2.921 0.823a247.043 247.043 0 0 1-10.815 2.463c-5.067 1.023-10.195 1.842-15.36 2.583h-0.161c-2.905 0.4-5.727 0.863-8.63 1.184-8.27 0.86-16.603 1.401-25.073 1.401-8.47 0-16.802-0.541-25.072-1.401-2.944-0.321-5.847-0.782-8.772-1.184-3.804-0.539-7.59-1.221-11.333-1.921-1.324-0.241-2.704-0.401-4.008-0.662a246.087 246.087 0 0 1-10.812-2.463c-1.002-0.281-1.962-0.581-2.922-0.823-3.025-0.82-6.05-1.64-9.033-2.583-4.147-1.26-8.273-2.502-12.338-3.945-2.282-0.822-4.525-1.842-6.768-2.743-0.08-0.04-0.16-0.08-0.24-0.08a266.534 266.534 0 0 1-50.766-26.836c-0.32-0.24-0.64-0.42-0.962-0.663a271.392 271.392 0 0 1-17.081-12.635c-0.02 0-0.06-0.04-0.08-0.04-35.206-28.237-64.345-65.506-85.15-108.82-11.436-23.753-20.067-49.405-25.955-76.36-4.043-18.543-7.088-37.587-8.169-57.253h558.963c-5.45 100.43-51.407 188.084-119.274 242.434z m177.85 606.96h-20.2l-8.417 20.201-8.419-20.2h-20.2l16.834-13.468-6.734-23.568 20.2 15.15 18.52-15.15-8.417 23.568 16.833 13.467z m-50.503-67.338h-15.15l-5.052 15.151-5.05-15.151h-16.833l11.784-10.102-5.05-16.834 13.466 10.1 13.468-10.1-5.05 16.834 13.467 10.102z m50.503-75.757H946.46l-3.366 11.786-5.05-11.786H926.26l8.417-6.733-5.05-13.469 13.468 8.419 10.1-8.419-5.05 13.47 10.1 6.732z m0 0zM842.085 823.85c-69.023-6.734-121.21-63.972-121.21-134.678 0-74.073 60.606-134.678 134.678-134.678 42.088 0 85.858 20.203 109.426 50.505H946.46c-74.072 0-134.678 60.603-134.678 134.677 0 31.986 11.785 60.605 30.303 84.174z m0 0z"  horiz-adv-x="1024" />

    
    <glyph glyph-name="zhengque" unicode="&#58888;" d="M512-109.226667c-273.066667 0-493.226667 221.866667-491.52 494.933334 0 273.066667 221.866667 493.226667 494.933333 491.52C786.773333 877.226667 1006.933333 655.36 1006.933333 384c0-273.066667-221.866667-493.226667-494.933333-493.226667z m0 925.013334C273.066667 815.786667 80.213333 621.226667 81.92 382.293333s194.56-431.786667 433.493333-430.08c237.226667 0 430.08 194.56 430.08 431.786667C945.493333 622.933333 750.933333 815.786667 512 815.786667z m197.973333-259.413334c8.533333 15.36 3.413333 34.133333-11.946666 42.666667-15.36 8.533333-34.133333 3.413333-42.666667-11.946667l-197.973333-341.333333-110.933334 102.4c-11.946667 11.946667-32.426667 11.946667-44.373333 0-10.24-11.946667-11.946667-29.013333-1.706667-40.96l141.653334-131.413333c11.946667-11.946667 30.72-13.653333 44.373333-1.706667 5.12 1.706667 223.573333 382.293333 223.573333 382.293333z"  horiz-adv-x="1024" />

    
    <glyph glyph-name="bingtu" unicode="&#58889;" d="M435.2-128c-116.224 0-225.536 45.26-307.712 127.488S0 190.976 0 307.2c0 116.224 45.26 225.536 127.488 307.712S318.976 742.4 435.2 742.4c14.131 0 25.6-11.469 25.6-25.6v-384h384c14.131 0 25.6-11.469 25.6-25.6 0-116.224-45.26-225.536-127.488-307.712S551.424-128 435.2-128z m-25.6 818.38C209.766 677.172 51.2 510.363 51.2 307.2c0-211.763 172.237-384 384-384 203.11 0 369.92 158.566 383.18 358.4H435.2c-14.131 0-25.6 11.469-25.6 25.6V690.38zM947.2 384H537.6c-14.131 0-25.6 11.469-25.6 25.6V819.2c0 14.131 11.469 25.6 25.6 25.6 116.224 0 225.536-45.26 307.712-127.488S972.8 525.824 972.8 409.6c0-14.131-11.469-25.6-25.6-25.6z m-384 51.2h357.58C908.135 626.586 754.587 780.083 563.2 792.78V435.2z"  horiz-adv-x="1024" />

    
    <glyph glyph-name="wangguan" unicode="&#58974;" d="M870.221032 66.061555L398.67162-128 0 270.54752 194.123605 741.972832A93.602512 93.602512 0 0 0 199.27376 868.461874a94.067887 94.067887 0 0 0 132.880198 0 94.067887 94.067887 0 0 0 0-132.880198 93.478412 93.478412 0 0 0-49.857221-25.936924c-13.619988-60.529831 2.637127-126.333917 49.857221-173.398886 61.925957-61.894932 155.776669-70.923216 227.847811-28.449951l6.546281 4.591704 73.715469 66.331511a93.571487 93.571487 0 0 0 24.013372 90.531034 94.098912 94.098912 0 0 0 132.911223 0 94.005837 94.005837 0 0 0 0-132.849173 93.416362 93.416362 0 0 0-90.531034-24.013372l-66.672786-71.357566-4.312479-9.028284c-42.349164-72.040117-33.320881-166.014929 28.480976-227.816786 47.220094-47.189069 112.90008-63.415159 173.429911-49.826196a93.695587 93.695587 0 0 0 25.967949 49.826196 93.974812 93.974812 0 0 0 132.880198-132.849173c-34.282657-34.685982-89.290033-36.206209-126.209817-5.274255z"  horiz-adv-x="1024" />

    
    <glyph glyph-name="belong" unicode="&#58962;" d="M875.008 269.504h-77.504v130.208h-0.992v0.96h-255.808V500.48h77.504a65.344 65.344 0 0 1 65.248 65.344V738.1759999999999a65.344 65.344 0 0 1-65.248 65.344h-204.224a65.376 65.376 0 0 1-65.216-65.344v-172.352c0-36.032 29.248-65.344 65.216-65.344h82.368v-99.808H228.896v-133.184H166.272a65.344 65.344 0 0 1-65.216-65.312v-172.384c0-36.064 29.248-65.376 65.216-65.376h204.192a65.376 65.376 0 0 1 65.248 65.376v172.384a65.344 65.344 0 0 1-65.248 65.312H274.208v84.64h476.992v-82.624h-80.448a65.344 65.344 0 0 1-65.184-65.376v-172.384c0-36 29.248-65.376 65.184-65.376h204.256a65.376 65.376 0 0 1 65.184 65.376v172.384a65.344 65.344 0 0 1-65.184 65.376z m-478.24 296.32V738.1759999999999c0 9.472 7.712 17.184 17.184 17.184h204.224c9.504 0 17.184-7.712 17.184-17.184v-172.352c0-9.472-7.68-17.216-17.184-17.216h-204.224a17.28 17.28 0 0 0-17.184 17.216z m-9.12-363.648v-172.384c0-9.504-7.68-17.184-17.184-17.184H166.272a17.184 17.184 0 0 0-17.184 17.184v172.384c0 9.44 7.712 17.184 17.184 17.184h204.192c9.504 0 17.184-7.744 17.184-17.184z m504.48-170.432c0-9.504-7.68-17.184-17.12-17.184h-204.256a17.152 17.152 0 0 0-17.12 17.184v172.384c0 9.504 7.68 17.184 17.12 17.184h204.256c9.44 0 17.12-7.68 17.12-17.184v-172.384z"  horiz-adv-x="1024" />

    
    <glyph glyph-name="fenzu" unicode="&#58976;" d="M677.376 614.07232H105.36448C61.34784 614.07232 25.6 575.88736 25.6 528.95232v-546.21696C25.6-64.19968 61.34784-102.4 105.36448-102.4H677.376c44.032 0 79.7696 38.17984 79.7696 85.11488V528.95232c-0.01536 46.93504-35.76832 85.12-79.7696 85.12zM135.49568 490.79296a10.2912 10.2912 0 0 0 9.8304 10.67008h492.06784a10.57792 10.57792 0 0 0 9.83552-10.67008v-469.89312a10.29632 10.29632 0 0 0-9.83552-10.65984H145.536a9.59488 9.59488 0 0 0-9.216 7.1168l-0.83456 2.5088V490.79296zM918.60992 870.4H407.41376a34.65728 34.65728 0 0 1-33.792-35.74784 34.87232 34.87232 0 0 1 33.792-35.9936h511.9232a12.288 12.288 0 0 0 11.43296-12.40576v-545.73056a35.37408 35.37408 0 0 1 8.99584-25.77408A33.36192 33.36192 0 0 1 998.4 239.06304V785.28C998.4 832.21504 962.62656 870.4 918.60992 870.4z m-121.10848-127.9232H286.30528a34.87232 34.87232 0 0 1-33.792-35.98848 34.87232 34.87232 0 0 1 33.792-35.9936h512.16384a12.288 12.288 0 0 0 11.43296-12.40576V111.872c0-20.9152 14.592-36.72064 33.5616-36.72064a34.87232 34.87232 0 0 1 33.792 35.9936V657.3568c0.01024 46.94016-35.7376 85.12-79.75424 85.12z"  horiz-adv-x="1024" />

    
    <glyph glyph-name="huifu" unicode="&#58952;" d="M872.4266666666666 834.56H151.57333333333338c-49.6 0-89.70666666666666-40.53333333333333-89.70666666666666-90.13333333333333l-0.4266666666666667-810.9866666666666 180.26666666666665 180.26666666666665h630.7199999999999c49.6 0 90.13333333333333 40.53333333333333 90.13333333333333 90.13333333333333V744.4266666666666c0 49.6-40.53333333333333 90.13333333333333-90.13333333333333 90.13333333333333zM376.85333333333335 429.0133333333333h-90.13333333333333v90.13333333333333h90.13333333333333v-90.13333333333333z m180.16 0h-90.13333333333333v90.13333333333333h90.13333333333333v-90.13333333333333z m180.26666666666665 0h-90.13333333333333v90.13333333333333h90.13333333333333v-90.13333333333333z"  horiz-adv-x="1024" />

    
    <glyph glyph-name="zhuzhuangtu" unicode="&#59137;" d="M398.222222 497.777778H170.666667v-455.111111h227.555555V497.777778z m-56.888889-398.222222H227.555556V440.888889h113.777777v-341.333333zM682.666667 668.444444H455.111111v-625.777777h227.555556V668.444444z m-56.888889-568.888888H512V611.555556h113.777778v-512zM739.555556 839.111111v-796.444444h227.555555V839.111111h-227.555555z m170.666666-739.555555h-113.777778V782.222222h113.777778v-682.666666zM113.777778 839.111111H56.888889v-910.222222h910.222222v56.888889H113.777778z"  horiz-adv-x="1024" />

    
    <glyph glyph-name="arrLeft-fill" unicode="&#58919;" d="M789.1111583709717 249.4780684453483l-279.65492248535145 279.6549224853517-278.8075160980226-278.80751609802246z"  horiz-adv-x="1024" />

    
    <glyph glyph-name="wenzi" unicode="&#58917;" d="M173.056 810.496h682.496c47.104 0 85.504-38.4 85.504-85.504v-682.496c0-47.104-38.4-85.504-85.504-85.504H173.056c-47.104 0-85.504 38.4-85.504 85.504V725.504c0 47.104 38.4 84.992 85.504 84.992z m0.512-44.544c-23.552 0-42.496-18.944-42.496-42.496v-681.984c0-23.552 18.944-42.496 42.496-42.496h682.496c23.552 0 42.496 18.944 42.496 42.496V723.456c0 23.552-18.944 42.496-42.496 42.496H173.568zM755.2 587.776c0-18.944-11.264-28.16-33.792-28.16h-177.664V133.12c0-22.528-9.728-33.792-29.184-33.792-19.456 0-29.184 11.264-29.184 33.792V559.616H307.2c-22.528 0-33.792 9.216-33.792 28.16 0 19.456 11.264 29.184 33.792 29.184h414.208c22.528-0.512 33.792-9.728 33.792-29.184z"  horiz-adv-x="1024" />

    
    <glyph glyph-name="baogao" unicode="&#58905;" d="M313.6 470.4c-16 0-28.8-12.8-28.8-28.8s12.8-28.8 28.8-28.8H512v60.8H313.6zM313.6 569.6c-16 0-28.8-12.8-28.8-28.8s12.8-28.8 28.8-28.8H512v60.8H313.6zM512 569.6v-60.8M313.6 368c-16 0-28.8-12.8-28.8-28.8s12.8-28.8 28.8-28.8H512v60.8H313.6zM313.6 268.8c-16 0-28.8-12.8-28.8-28.8s12.8-28.8 28.8-28.8H512v60.8H313.6zM512 268.8v-60.8M323.2-51.2c-60.8 0-131.2-3.2-121.6 99.2V630.4c0 57.6 57.6 115.2 121.6 99.2v-9.6c0-38.4 32-70.4 70.4-70.4H512V723.2c-28.8 0-57.6 25.6-57.6 57.6S480 835.2 512 835.2V889.6c-57.6 0-105.6-44.8-108.8-99.2h-9.6c-19.2 0-35.2-9.6-48-19.2h-64C224 771.2 160 700.8 160 672v-681.6c0-32 32-80 121.6-80H512v41.6h-188.8zM512 470.4v-60.8M512-51.2v-41.6M512 723.2v-73.6M512 889.6v-54.4M368-22.4c19.2 35.2 80 108.8 108.8 115.2-12.8 25.6-6.4 48-3.2 73.6-67.2-35.2-108.8-137.6-108.8-137.6l-25.6 51.2-54.4-32c22.4-9.6 54.4-35.2 83.2-70.4zM512 368v-57.6M710.4 470.4c16 0 28.8-12.8 28.8-28.8s-12.8-28.8-28.8-28.8H512v60.8h198.4zM710.4 569.6c16 0 28.8-12.8 28.8-28.8s-12.8-28.8-28.8-28.8H512v60.8h198.4zM512 569.6v-60.8M710.4 368c16 0 28.8-12.8 28.8-28.8s-12.8-28.8-28.8-28.8H512v60.8h198.4zM710.4 268.8c16 0 28.8-12.8 28.8-28.8s-12.8-28.8-28.8-28.8H512v60.8h198.4zM512 268.8v-60.8M700.8-51.2c60.8 0 131.2-3.2 121.6 99.2V630.4c0 57.6-57.6 115.2-121.6 99.2v-9.6c0-38.4-32-70.4-70.4-70.4H512V723.2c28.8 0 57.6 25.6 57.6 57.6S544 835.2 512 835.2V889.6c57.6 0 105.6-44.8 108.8-99.2h9.6c19.2 0 35.2-9.6 48-19.2h60.8c57.6 0 121.6-70.4 121.6-99.2v-681.6c0-32-32-80-121.6-80H512v41.6h188.8zM512 470.4v-60.8M512-51.2v-41.6M512 723.2v-73.6M512 889.6v-54.4M512 368v-57.6"  horiz-adv-x="1024" />

    
    <glyph glyph-name="arrLeft-fill1" unicode="&#59017;" d="M234.88884163 518.52193155l279.65492248-279.65492248 278.8075161 278.8075161z"  horiz-adv-x="1024" />

    
    <glyph glyph-name="daichuli" unicode="&#58933;" d="M976.054682 184.969437c-22.197832 53.894737-64.693682 96.890538-118.288448 119.688311-27.497315 11.698858-57.094424 17.598281-86.991505 17.298311-30.297041 0-58.894249-5.799434-85.891612-17.298311-26.497412-11.298897-50.495069-27.597305-70.793087-48.095303a231.567386 231.567386 0 0 1-47.995313-71.593008c-11.798848-27.297334-17.698272-56.594473-17.698271-87.991408s5.799434-60.694073 17.698271-87.991407c11.798848-27.197344 27.797285-51.09501 47.995313-71.593008 20.198028-20.497998 43.895713-36.396446 70.793087-47.995313 26.997364-11.598867 55.594571-17.398301 85.891612-17.398301 31.096963 0 59.994141 5.799434 86.991505 17.398301 53.594766 22.797774 96.090616 65.793575 118.288448 119.588321 11.498877 27.297334 17.19832 56.594473 17.198321 87.991407 0 31.496924-5.699443 60.694073-17.198321 87.991408z m-62.593887-113.488918c-4.799531-6.899326-10.099014-10.199004-16.198418-10.199004H759.675813c-20.697979 0-21.19793 18.798164-21.19793 46.995411V220.765941c0 5.499463 2.599746 10.199004 7.599258 14.298603s12.59877 6.099404 22.697783 6.099405c10.199004 0 18.098233-1.999805 23.797676-6.099405 5.699443-4.0996 8.59916-8.799141 8.599161-14.298603v-89.891222h96.090616c6.099404 0 11.398887-3.399668 16.098428-10.199004 4.899522-7.199297 7.399277-15.798457 7.099306-24.597598 0-9.599063-2.399766-17.798262-6.999316-24.597598zM481.702959 98.077922v15.398496c0 4.799531 0.399961 9.499072 0.999902 14.298604H233.027243c-16.99834-0.19998-33.296748 6.599356-44.995605 18.898154a62.343912 62.343912 0 0 0-18.598184 45.495558c0 17.698272 6.199395 32.796797 18.598184 44.995605 11.898838 11.998828 28.097256 18.698174 44.995605 18.398204h294.271263c25.5975 40.196075 59.29421 72.19295 101.090128 96.090616 42.195879 23.997656 89.991212 36.296455 138.486476 35.796504H784.973342c6.099404 0 11.798848-0.699932 17.298311-2.099795V639.925007H654.586076c-18.198223 0-33.99668 3.999609-47.495362 12.298799-13.298701 7.999219-24.697588 18.798164-33.296749 31.696905-8.59916 12.69876-15.098526 26.697393-19.198125 41.495948-3.899619 13.798652-5.999414 28.097256-6.099404 42.395859V895.500049H80.742115c-20.997949-0.299971-37.796309-17.298311-37.896299-38.29626v-884.413632c0-20.997949 16.89835-38.09628 37.896299-38.39625h450.45601c-15.498486 23.897666-27.697295 49.695147-36.396445 76.792501-8.899131 28.097256-13.298701 57.394395-13.098721 86.891514zM187.931647 493.239332c11.698858 12.298799 28.097256 19.098135 44.995606 18.898155H611.990235c16.79836 0.299971 32.996778-6.499365 44.495655-18.898155 12.098818-12.59877 18.198223-27.797285 18.198223-45.495557 0.299971-16.89835-6.299385-33.096768-18.298213-44.995606-11.598867-12.098818-27.697295-18.698174-44.495655-18.398203H233.027243c-16.89835-0.299971-33.196758 6.399375-44.995605 18.398203-12.198809 11.698858-18.998145 27.997266-18.598184 44.995606-0.09999 17.698272 6.099404 32.896787 18.498193 45.495557z m500.951079 212.179279h113.288937V857.203789c0 20.997949-16.99834 38.09628-37.99629 38.29626H613.090128V782.011132c0-19.698076 7.399277-39.296162 22.197832-54.194708 14.898545-14.998535 34.296651-22.397813 53.594766-22.397813z"  horiz-adv-x="1024" />

    
    <glyph glyph-name="fl-huifang" unicode="&#58943;" d="M73.41302267 233.92417817l611.77289638 611.77030732C455.3497107 792.43977008 139.09530548 488.41357337 73.41302267 233.92417817zM699.08149285 844.6044842700001L73.41302267 219.00074098000005c-11.29096281-36.0813707-17.75070878-70.9614099-17.7507088-103.52552013 0-78.31050366 82.2756744-177.46954619 177.51614958-177.46954618 32.65213883 0 177.58087648 203.61921929 177.58087648 250.57082785 0 48.24226323-41.80581893 83.56762358-41.80581895 125.35143538 0 41.73979749 183.97330647 229.63426038 229.72487807 229.65626753 45.61435054 0 67.79755837-41.69448865 114.83978461-41.69448865 33.85217581-0.02330169 240.10060231 125.26340677 240.10060231 177.42553189-0.04271977 52.18542681-92.74460539 177.44883358-177.55886933 177.44883358-23.78843529 0-49.67272802-4.29786706-76.97842379-12.15959798zM995.40130323 75.47398826999995L793.87664688 214.90223279999998v-66.19621451H510.74300334V2.1500460299999986h283.13364354v-66.1043023z"  horiz-adv-x="1024" />

    
    <glyph glyph-name="jiaobiaoxuanzhongzhuangtai" unicode="&#59075;" d="M827.22133333 891.22133333H48.98133333l972.8-972.8v778.24c0 107.008-87.04 194.56-194.56 194.56z m88.064-197.12l-242.688-231.936c-12.288-11.776-31.744-11.776-44.032 0l-133.12 126.464c-12.288 11.776-12.288 30.72 0 41.984 12.288 11.776 31.744 11.776 44.032 0l110.08-105.472 220.672 210.944c12.288 11.776 31.744 11.776 44.032 0 13.312-11.264 13.312-30.208 1.024-41.984z"  horiz-adv-x="1024" />

    
    <glyph glyph-name="guanligenjin" unicode="&#58981;" d="M927.573333 480.8192h-51.780266a376.029867 376.029867 0 0 1-35.157334 86.545067l46.506667 46.557866a79.445333 79.445333 0 0 1-0.034133 112.315734L859.016533 754.346667a79.36 79.36 0 0 1-112.264533-0.034134l-45.636267-45.704533a373.504 373.504 0 0 1-89.975466 37.632V799.573333A79.36 79.36 0 0 1 531.780267 878.933333h-39.697067a79.36 79.36 0 0 1-79.36-79.36v-53.316266a373.845333 373.845333 0 0 1-89.9072-37.5808l-45.7728 45.755733a79.3088 79.3088 0 0 1-112.2304-0.068267L136.8064 726.289067a79.496533 79.496533 0 0 1 0.034133-112.315734l46.5408-46.592a373.879467 373.879467 0 0 1-35.157333-86.545066H96.426667A79.36 79.36 0 0 1 17.066667 401.476267v-39.68a79.36 79.36 0 0 1 79.36-79.36h52.394666a374.784 374.784 0 0 1 36.4032-87.176534L136.789333 146.773333a79.4624 79.4624 0 0 1-0.034133-112.264533l28.0576-28.125867a79.394133 79.394133 0 0 1 112.349867-0.0512l48.7424 48.7424a372.0192 372.0192 0 0 1 86.869333-35.771733v-50.8416a79.36 79.36 0 0 1 79.36-79.36h39.68a79.36 79.36 0 0 1 79.36 79.36v50.8416l5.563733 1.553067c23.5008 6.792533 31.2832 36.3008 14.626134 54.186666l-43.861334 47.086934a32.392533 32.392533 0 0 1-29.508266 10.001066 255.1296 255.1296 0 0 0-88.439467-0.699733c-109.226667 18.107733-195.345067 108.3904-208.264533 218.350933-19.268267 163.925333 118.6304 301.294933 282.709333 281.122134 109.6704-13.482667 199.441067-99.6864 217.1392-208.776534 4.949333-30.498133 4.334933-60.16-0.904533-88.183466a32.426667 32.426667 0 0 1 10.2912-29.866667l48.554666-44.117333c17.92-16.2816 46.933333-8.430933 53.8624 14.779733 0.750933 2.525867 1.4848 5.085867 2.184534 7.6288h52.394666a79.36 79.36 0 0 1 79.36 79.36v39.7312a79.291733 79.291733 0 0 1-79.3088 79.36zM982.084267 28.4672L709.802667 275.182933l0.187733 0.2048c-2.286933 2.167467-3.9424 3.754667-4.829867 4.676267-14.5408 14.8992-9.642667 28.2112-5.085866 37.154133 32.238933 62.378667 4.1984 151.2448-41.8816 197.341867-46.097067 46.097067-90.606933 54.493867-113.390934 55.9104a94.344533 94.344533 0 0 1-38.5024-6.075733c-22.033067-8.226133-27.306667-37.2736-10.632533-53.879467l58.606933-58.385067c7.68-7.662933 11.1104-18.602667 9.181867-29.269333l-10.3424-56.9856a33.006933 33.006933 0 0 0-26.624-26.589867l-57.088-10.257066a32.989867 32.989867 0 0 0-29.1328 9.096533l-58.197333 57.992533c-16.9472 16.878933-46.2336 10.871467-54.2208-11.6736-4.573867-12.9024-6.536533-25.821867-5.956267-36.898133 1.2288-23.671467 14.5408-74.1376 56.081067-113.220267 39.953067-37.853867 114.432-77.636267 197.154133-42.410666 9.984 4.1984 23.125333 8.942933 37.154133-5.085867 2.389333-2.4064 255.3856-273.152 255.3856-273.152 29.269333-33.9968 83.421867-31.5392 114.961067-0.170667 31.3344 31.8976 33.262933 85.691733-0.546133 114.961067z m-60.2112-85.6576a31.112533 31.112533 0 1 0 0 62.225067 31.112533 31.112533 0 0 0 0-62.225067z"  horiz-adv-x="1024" />

    
    <glyph glyph-name="baobei" unicode="&#59903;" d="M919.195869 330.474953zM898.345007 323.569855zM858.779282 352.048862l0.106951 0.105444 0.10695 0.109964M1179.619259 423.190644l-68.156201 68.154695c-15.687103 15.690116-41.127807 15.690116-56.814911 0l-96.826514-97.465205 124.974125-124.974125 96.823501 97.465206c15.693129 15.690116 15.693129 41.129313 0 56.819429zM960.414057 344.173677c-15.691622 15.690116-41.127807 15.690116-56.817923 0L665.37932 102.075006c-15.690116-15.687103-15.690116-41.127807 0-56.814911l68.156201-68.159214c15.690116-15.687103 41.127807-15.687103 56.817923 0l238.216814 242.098672c15.690116 15.690116 15.690116 41.13082 0 56.817923l-68.156201 68.156201zM573.835567-10.262369v-68.894312c-0.001506-21.150626 17.145248-38.294367 38.291355-38.294367h68.89883c21.14912 0 38.294367 17.143741 38.291355 38.294367l-107.190185 107.188679c-21.147613-0.001506-38.292861-17.143741-38.291355-38.294367zM989.634187 830.431704c0 28.125015-23.175157 50.926598-51.762621 50.926598H187.214899c-28.58897 0-51.764127-22.801583-51.764127-50.926598v-857.794131c0-28.126521 23.176663-50.925092 51.764127-50.925091h342.233125v56.911317a85.524388 85.524388 0 0 0 29.32708 64.557536l430.859083 436.057489V830.431704z m-290.938978-510.666883H326.585187c-18.719381 0-33.89282 15.171933-33.89282 33.89282 0 18.717875 15.173439 33.894326 33.89282 33.894327h372.110022c18.717875 0 33.89282-15.176452 33.89282-33.894327 0-18.719381-15.174945-33.89282-33.89282-33.89282z m90.380853 244.053911H326.585187c-18.719381 0-33.89282 15.174945-33.89282 33.89282 0 18.719381 15.173439 33.89282 33.89282 33.89282h462.490875c18.717875 0 33.89282-15.173439 33.89282-33.89282 0-18.717875-15.174945-33.89282-33.89282-33.89282z"  horiz-adv-x="1205" />

    
    <glyph glyph-name="add-user" unicode="&#58886;" d="M400.23552 892.5184a230.912 230.912 0 0 0 54.74304-6.6048 269.79328 269.79328 0 0 0 51.22048-17.75104 231.84384 231.84384 0 0 0 42.61888-25.37472 154.0096 154.0096 0 0 0 28.93824-28.42624 223.90784 223.90784 0 0 0 36.36224-71.51616 522.86976 522.86976 0 0 0 16.03584-74.56768 635.32544 635.32544 0 0 0 5.07904-82.11456 38.7072 38.7072 0 0 0 10.56256-13.17376 77.66016 77.66016 0 0 0 5.8624-18.26304c1.68448-9.03168 1.95072-18.26304 0.78336-27.37664a111.90272 111.90272 0 0 0-8.21248-33.97632 70.68672 70.68672 0 0 0-14.07488-19.7888 46.03392 46.03392 0 0 0-17.98656-11.14624 1026.44736 1026.44736 0 0 0-9.37984-32.45568c-3.52256-8.79616-7.04512-17.39776-10.95168-25.8816a70.4256 70.4256 0 0 0-14.08-19.7888 970.0352 970.0352 0 0 1-29.71136-25.88672 63.01696 63.01696 0 0 1-15.25248-36.01408c-1.82784-10.19904-1.92512-25.51808-1.40288-35.87072-8.73984-15.98464-13.57824-28.1856-18.19136-40.00768-7.36768-23.20384-10.14784-31.57504-12.9536-48.14848-2.88256-15.90784-3.58912-28.30336-3.968-33.90464-1.62816-21.60128 0.93696-45.69088 2.63168-59.40224 2.9184-19.52768 8.25344-37.90336 11.32032-47.80544a429.66016 429.66016 0 0 1 9.40032-24.63744c5.248-11.37152 7.65952-16.68096 15.50336-30.63808a599.8592 599.8592 0 0 1 9.95328-15.68256c7.25504-10.76736 13.11744-18.19648 16.81408-22.4512 11.95008-14.26432 19.7632-21.57056 19.7632-21.57056 8.66304-8.20224 17.38752-16.45568 30.34624-26.1376 5.29408-3.78368 10.94656-7.70048 10.94656-7.70048a434.82112 434.82112 0 0 1 18.01216-11.18208c1.78688-1.00864 1.78688-1.00864 3.54816-2.048-26.81344-4.16256-72.62208-9.0368-99.98848-11.4176a2471.8848 2471.8848 0 0 0-78.98624-5.59616c-25.02656-1.36704-46.91968-2.03264-65.30048-2.03264s-39.8848 0.6656-64.51712 2.03264c-24.63744 1.37216-49.664 3.21024-75.85792 5.59616a2881.6896 2881.6896 0 0 0-77.81376 8.13568c-25.80992 3.05152-49.26976 6.25664-70.37952 9.61536-21.11488 3.36384-38.71232 6.76352-53.57056 10.1632a70.56384 70.56384 0 0 0-27.37664 10.1632 89.30304 89.30304 0 0 0-14.85824 49.69984 402.64704 402.64704 0 0 0 4.3008 107.5712 85.4784 85.4784 0 0 0 28.15488 57.32352 183.36256 183.36256 0 0 0 54.35392 31.27808 706.6624 706.6624 0 0 0 64.51712 20.80256 199.86432 199.86432 0 0 1 59.04384 26.3936 139.49952 139.49952 0 0 1 30.49984 25.37984 83.16416 83.16416 0 0 1 15.24736 24.36096 62.94016 62.94016 0 0 1 5.08416 25.37984c0 8.78592-0.39424 18.60096-1.1776 29.44512a56.86272 56.86272 0 0 1-15.25248 37.03296 526.3616 526.3616 0 0 1-29.71136 27.91936 62.54592 62.54592 0 0 0-13.29664 19.7888 1870.37184 1870.37184 0 0 0-10.55744 25.8816 999.89504 999.89504 0 0 0-9.37984 32.45568 42.4704 42.4704 0 0 0-13.29152 7.1168 79.34464 79.34464 0 0 0-12.51328 14.19264 84.8896 84.8896 0 0 0-11.3408 26.3936 71.15776 71.15776 0 0 0-4.3008 31.27808c0.66048 8.30464 2.37056 16.49152 5.08416 24.36608a67.41504 67.41504 0 0 0 12.51328 21.30944 509.34784 509.34784 0 0 0 3.90656 77.1072 474.47552 474.47552 0 0 0 13.69088 69.99552 218.40896 218.40896 0 0 0 30.1056 66.97984 187.74016 187.74016 0 0 0 40.66816 46.1824 202.9568 202.9568 0 0 0 45.7472 27.91936 190.01856 190.01856 0 0 0 46.91968 13.68576 301.07136 301.07136 0 0 0 45.3632 3.5584V892.5184z m0 0M1013.76 147.62496c0-126.7712-102.77376-229.54496-229.54496-229.54496s-229.54496 102.77376-229.54496 229.54496 102.77376 229.54496 229.54496 229.54496S1013.76 274.40128000000004 1013.76 147.62496z m-264.12032 116.4544c-0.09216-1.51552 0-82.06336 0-82.06336h-83.51232c-36.89984-2.176-36.21888-34.39104-36.21888-34.39104s0-32.42496 36.21888-34.39104h83.51232v-82.06336c2.57536-36.72064 34.39104-36.21888 34.39104-36.21888s32.60928 0 34.39104 36.21888v82.06336h80.6144c36.21888 2.06848 36.21888 34.39104 36.21888 34.39104s0 32.10752-36.21888 34.39104h-80.6144v82.06336c-1.94048 36.21888-34.39104 36.21888-34.39104 36.21888s-32.24576 0.00512-34.39104-36.21888z"  horiz-adv-x="1024" />

    
    <glyph glyph-name="remove-user" unicode="&#58887;" d="M400.23552 892.5184a230.912 230.912 0 0 0 54.74304-6.6048 269.79328 269.79328 0 0 0 51.22048-17.75104 231.84384 231.84384 0 0 0 42.61888-25.37472 154.0096 154.0096 0 0 0 28.93824-28.42624 223.90784 223.90784 0 0 0 36.36224-71.51616 522.86976 522.86976 0 0 0 16.03584-74.56768 635.32544 635.32544 0 0 0 5.07904-82.11456 38.7072 38.7072 0 0 0 10.56256-13.17376 77.66016 77.66016 0 0 0 5.8624-18.26304c1.68448-9.03168 1.95072-18.26304 0.78336-27.37664a111.90272 111.90272 0 0 0-8.21248-33.97632 70.68672 70.68672 0 0 0-14.07488-19.7888 46.03392 46.03392 0 0 0-17.98656-11.14624 1026.44736 1026.44736 0 0 0-9.37984-32.45568c-3.52256-8.79616-7.04512-17.39776-10.95168-25.8816a70.4256 70.4256 0 0 0-14.08-19.7888 970.0352 970.0352 0 0 1-29.71136-25.88672 63.01696 63.01696 0 0 1-15.25248-36.01408c-1.82784-10.19904-1.92512-25.51808-1.40288-35.87072-8.73984-15.98464-13.57824-28.1856-18.19136-40.00768-7.36768-23.20384-10.14784-31.57504-12.9536-48.14848-2.88256-15.90784-3.58912-28.30336-3.968-33.90464-1.62816-21.60128 0.93696-45.69088 2.63168-59.40224 2.9184-19.52768 8.25344-37.90336 11.32032-47.80544a429.66016 429.66016 0 0 1 9.40032-24.63744c5.248-11.37152 7.65952-16.68096 15.50336-30.63808a599.8592 599.8592 0 0 1 9.95328-15.68256c7.25504-10.76736 13.11744-18.19648 16.81408-22.4512 11.95008-14.26432 19.7632-21.57056 19.7632-21.57056 8.66304-8.20224 17.38752-16.45568 30.34624-26.1376 5.29408-3.78368 10.94656-7.70048 10.94656-7.70048a434.82112 434.82112 0 0 1 18.01216-11.18208c1.78688-1.00864 1.78688-1.00864 3.54816-2.048-26.81344-4.16256-72.62208-9.0368-99.98848-11.4176a2471.8848 2471.8848 0 0 0-78.98624-5.59616c-25.02656-1.36704-46.91968-2.03264-65.30048-2.03264s-39.8848 0.6656-64.51712 2.03264c-24.63744 1.37216-49.664 3.21024-75.85792 5.59616a2881.6896 2881.6896 0 0 0-77.81376 8.13568c-25.80992 3.05152-49.26976 6.25664-70.37952 9.61536-21.11488 3.36384-38.71232 6.76352-53.57056 10.1632a70.56384 70.56384 0 0 0-27.37664 10.1632 89.30304 89.30304 0 0 0-14.85824 49.69984 402.64704 402.64704 0 0 0 4.3008 107.5712 85.4784 85.4784 0 0 0 28.15488 57.32352 183.36256 183.36256 0 0 0 54.35392 31.27808 706.6624 706.6624 0 0 0 64.51712 20.80256 199.86432 199.86432 0 0 1 59.04384 26.3936 139.49952 139.49952 0 0 1 30.49984 25.37984 83.16416 83.16416 0 0 1 15.24736 24.36096 62.94016 62.94016 0 0 1 5.08416 25.37984c0 8.78592-0.39424 18.60096-1.1776 29.44512a56.86272 56.86272 0 0 1-15.25248 37.03296 526.3616 526.3616 0 0 1-29.71136 27.91936 62.54592 62.54592 0 0 0-13.29664 19.7888 1870.37184 1870.37184 0 0 0-10.55744 25.8816 999.89504 999.89504 0 0 0-9.37984 32.45568 42.4704 42.4704 0 0 0-13.29152 7.1168 79.34464 79.34464 0 0 0-12.51328 14.19264 84.8896 84.8896 0 0 0-11.3408 26.3936 71.15776 71.15776 0 0 0-4.3008 31.27808c0.66048 8.30464 2.37056 16.49152 5.08416 24.36608a67.41504 67.41504 0 0 0 12.51328 21.30944 509.34784 509.34784 0 0 0 3.90656 77.1072 474.47552 474.47552 0 0 0 13.69088 69.99552 218.40896 218.40896 0 0 0 30.1056 66.97984 187.74016 187.74016 0 0 0 40.66816 46.1824 202.9568 202.9568 0 0 0 45.7472 27.91936 190.01856 190.01856 0 0 0 46.91968 13.68576 301.07136 301.07136 0 0 0 45.3632 3.5584V892.5184z m0 0M1013.76 147.62496c0-126.7712-102.77376-229.54496-229.54496-229.54496s-229.54496 102.77376-229.54496 229.54496 102.77376 229.54496 229.54496 229.54496S1013.76 274.40128000000004 1013.76 147.62496z m-264.12032 34.39104h-83.51232c-36.89984-2.176-36.21888-34.39104-36.21888-34.39104s0-32.42496 36.21888-34.39104H899.03616c36.21888 2.06848 36.21888 34.39104 36.21888 34.39104s0 32.10752-36.21888 34.39104h-149.39648z"  horiz-adv-x="1024" />

    
    <glyph glyph-name="qingjia" unicode="&#58908;" d="M376.6784 169.5232c0 33.4848 5.2224 65.792 15.104 96.1536 9.8816 30.8736 24.4224 58.7776 42.1888 84.48 18.3808 25.8048 39.5264 48.3328 64.5632 68.2496 24.32 20.0704 52.0704 35.584 81.7152 47.6672 2.048 4.5568 3.2768 9.0624 6.0416 16.2304l4.5056 12.3392c0.6656 3.84 2.048 7.68 3.2768 10.8544 6.0416 2.048 11.264 5.2224 16.3328 9.7792 4.5568 3.84 8.4992 9.728 12.4928 16.7424 3.2768 7.1168 6.0416 17.4592 7.2704 29.6448 0.6656 9.0624 0.6656 16.7424-0.6656 23.1936-1.9456 6.4512-3.2768 11.52-6.0416 15.5136-2.6112 4.5568-6.0416 8.3968-9.8816 11.008 0 23.9104-2.048 47.104-4.5056 69.632-3.2768 20.0704-7.8336 41.216-15.104 63.1808-6.6048 21.9648-17.8688 42.5984-32.9728 60.5696-6.6048 7.68-15.7696 16.2304-26.9312 23.9104-11.264 7.68-24.32 14.848-38.7072 21.2992-14.5408 5.7856-30.208 10.9568-46.6944 14.848-16.3328 3.84-32.9728 5.888-49.9712 5.888-13.1584 0-26.9312-1.2288-41.472-3.2768-14.5408-1.9456-28.9792-5.7856-43.52-11.52-14.5408-5.7856-28.9792-14.1312-42.1376-23.9104-13.2096-9.728-25.7024-22.6816-37.4784-38.7072-11.8272-16.7424-21.1456-35.584-26.9312-56.7296-6.0416-21.2992-9.8816-41.216-12.4928-59.3408-2.048-21.9648-3.2768-43.264-3.2768-65.0752-5.2224-5.888-8.4992-11.52-11.264-17.9712-2.6112-6.4512-4.5568-13.568-5.2224-21.2992-0.6656-7.68 0.6656-16.7424 3.2768-26.5216 2.6112-10.2912 6.6048-17.4592 10.5984-22.6816 3.9936-5.2224 7.8336-9.728 11.264-12.3392 4.5568-2.6112 8.4992-4.5056 12.4928-5.888 2.6112-9.0624 6.0416-17.9712 8.4992-26.5216 2.6112-7.68 6.0416-14.848 9.8816-21.9648 3.2768-7.1168 7.8336-12.9024 12.4928-16.7424 9.8816-8.3968 19.0976-16.2304 26.9312-23.9104 7.8336-7.68 12.4928-18.7904 13.8752-31.5904 0.6656-9.7792 0.6656-17.4592 0.6656-25.1392 0-7.168-2.048-14.1312-4.5568-21.2992-3.2768-7.168-7.8336-14.1312-14.5408-21.2992-6.7072-7.1168-15.7696-14.1312-28.416-21.9648-9.8816-6.4512-21.7088-11.52-34.2016-16.1792-12.4928-4.5568-25.7024-8.3968-38.8608-12.3392-13.8752-3.84-26.9312-7.68-39.5776-11.52-12.4928-4.5568-24.32-9.728-34.8672-16.2304-10.5984-7.168-19.7632-14.848-26.9312-23.9104-7.2704-9.0624-11.8272-20.5824-14.5408-34.7648-6.0416-37.376-7.2704-67.6864-3.9936-91.4432 3.2768-23.9104 7.8336-38.0416 14.5408-42.5984 3.9936-2.6112 12.4928-5.888 25.7024-8.3968 13.2096-2.6112 29.6448-5.888 48.7424-8.3968 19.7632-3.2768 40.8064-5.888 64.5632-8.3968 23.6032-2.6112 47.5136-5.2224 71.1168-7.168 24.4224-1.9456 47.5136-3.1744 69.888-4.4032 22.3744-1.2288 42.1888-2.048 59.3408-2.048h23.1936c-13.8752 23.9104-25.1392 49.7152-32.9728 76.7488-7.8336 27.4432-11.8272 55.8592-11.8272 85.5552z m0 0M959.3856 272.64c-14.5408 32.9728-34.2016 61.2352-59.3408 86.3744-24.9856 24.4224-53.9648 43.8272-87.5008 57.9584-33.6384 14.1312-69.0688 21.2992-107.4176 21.2992-38.1952 0-74.4448-7.1168-107.9296-21.2992-33.6384-14.1312-62.6176-33.4848-87.5008-57.9584-24.9856-24.4224-44.7488-53.5552-59.3408-86.3744-14.5408-32.9728-21.7088-67.6864-21.7088-105.0624s7.2704-72.2432 21.7088-105.0624c14.5408-32.9728 34.2016-61.2352 59.3408-86.3744 24.9856-24.4224 53.9648-43.8272 87.5008-57.9584 33.6384-14.1312 69.888-21.2992 107.9296-21.2992 38.0416 0 73.728 7.1168 107.4176 21.2992 33.6384 14.1312 62.6176 33.4848 87.5008 57.9584 25.1392 24.4224 44.7488 53.5552 59.3408 86.3744 14.5408 32.9728 21.7088 67.6864 21.7088 105.0624 0 37.2224-7.2704 72.0896-21.7088 105.0624z m-178.4832-224.8192c-10.5984 0-21.1456 4.096-29.1328 12.0832l-82.1248 82.432c-7.424 7.2704-12.0832 17.7152-12.0832 28.9792v164.4032c0 22.784 18.3808 41.0624 41.0624 41.0624 22.6816 0 41.0624-18.3808 41.0624-41.0624v-147.5072l70.1952-70.1952c16.0768-16.0768 16.0768-42.0352 0-58.112-7.9872-7.936-18.432-12.0832-28.9792-12.0832z m0 0"  horiz-adv-x="1024" />

    
    <glyph glyph-name="leidatu" unicode="&#59089;" d="M514.6 770l454.2-308.8-173.4-512.8H233.7L60.3 460.5 514.6 770m0 57L5.9 478.2l194.3-576H829l194.3 576.6L514.6 827z m0 0M514.6 603.1l278.1-195.6-106.2-320.3h-344l-106.2 320 278.3 195.9m0 57.1L181.9 424.8 309 40.9h411.1l127 384.3-332.5 235z m0 0M514.6 715L283.3 345.1l462.4-370L514.6 715z m0 0"  horiz-adv-x="1024" />

    
    </font>
</defs>
</svg>
